<?xml version="1.0" encoding="UTF-8" standalone="no"?>
<!-- Created with Inkscape (http://www.inkscape.org/) -->

<svg
   width="128"
   height="128"
   viewBox="0 0 33.866667 33.866667"
   version="1.1"
   id="svg891"
   inkscape:version="1.1.2 (1:1.1+202202050950+0a00cf5339)"
   sodipodi:docname="icon.svg"
   inkscape:export-filename="/home/lbutkows/DESY/firmware/fpgafw/fwk/doc/modules/ROOT/images/icon.png"
   inkscape:export-xdpi="96.000008"
   inkscape:export-ydpi="96.000008"
   xmlns:inkscape="http://www.inkscape.org/namespaces/inkscape"
   xmlns:sodipodi="http://sodipodi.sourceforge.net/DTD/sodipodi-0.dtd"
   xmlns="http://www.w3.org/2000/svg"
   xmlns:svg="http://www.w3.org/2000/svg">
  <sodipodi:namedview
     id="namedview893"
     pagecolor="#ffffff"
     bordercolor="#999999"
     borderopacity="1"
     inkscape:pageshadow="0"
     inkscape:pageopacity="0"
     inkscape:pagecheckerboard="0"
     inkscape:document-units="mm"
     showgrid="false"
     fit-margin-top="0"
     fit-margin-left="0"
     fit-margin-right="0"
     fit-margin-bottom="0"
     units="px"
     inkscape:zoom="1.587419"
     inkscape:cx="141.42454"
     inkscape:cy="159.37821"
     inkscape:window-width="1920"
     inkscape:window-height="1133"
     inkscape:window-x="0"
     inkscape:window-y="0"
     inkscape:window-maximized="1"
     inkscape:current-layer="layer1" />
  <defs
     id="defs888" />
  <g
     inkscape:label="Layer 1"
     inkscape:groupmode="layer"
     id="layer1"
     transform="translate(-1.4932185,-1.9265843)">
    <g
       id="g1024"
       transform="translate(0,-0.24256754)">
      <g
         stroke-opacity="0.6"
         fill-opacity="0.6"
         transform="matrix(0.12336056,0,0,0.12953033,8.4761145,6.1171691)"
         id="g12"
         style="stroke-width:1.74599;stroke-miterlimit:4;stroke-dasharray:none">
        <path
           d="M 0,0 C 0,0 0,0 0,0 M 0,0 C 0,0 0,0 0,0 M 0.13626548,6.4510061 C 1.3453114,4.4892088 4.0980424,2.0299092 4.3553751,0.04862511 M 0.12732445,6.0586846 C 1.1741266,4.8421373 2.2925667,3.1655424 4.6339524,0.05554916 M 1.5954518,13.431925 C 3.4574404,7.5572138 7.0526137,1.7012626 11.286279,1.2547553 M 0.22875524,12.824309 C 3.3830943,9.0292276 5.6095585,5.3923457 10.37966,-0.53803147 M -0.08372405,18.716929 C 4.3935838,12.911648 8.257453,10.002781 13.863421,0.23566753 M -0.86190088,19.342891 C 4.2383457,13.823944 6.8866187,9.63673 15.646434,0.0544896 M 0.70032162,23.185122 C 8.1850648,13.406796 15.15566,8.0327574 21.758696,-0.20374407 M 0.44575385,24.944597 C 5.9702559,18.573434 11.264992,12.058438 20.650928,0.74771272 M -1.0902003,32.08279 C 5.9060165,24.436414 9.809361,18.870081 25.30505,1.9913356 M -0.31987628,30.392601 C 6.2155067,23.38735 14.396502,15.432404 26.533279,-0.16830245 M -1.7088376,37.018931 C 8.2551285,26.260129 15.702554,20.842802 33.03976,-1.0533197 M -1.1675577,37.143406 C 7.1709858,28.705326 13.721877,19.979339 32.857771,0.13811991 M -0.16499774,41.514653 C 14.888883,29.045869 27.522849,12.737112 38.682508,0.15651147 M 0.8812479,42.838083 C 11.352086,29.860036 19.893213,19.895864 37.770507,0.98331423 M -0.12962433,48.204803 C 11.609839,34.728673 27.47709,19.75781 44.446351,1.3833215 M -0.70704363,49.597655 C 10.967451,38.166778 20.73407,25.725495 41.716632,-0.83815304 M 0.7197156,56.492498 C 14.871026,40.626028 27.435438,24.550774 47.851752,-0.36694947 M 1.0830244,53.771377 C 15.767092,36.966999 31.251366,18.755307 47.66061,1.0154432 M 1.5128595,61.524304 C 16.235876,40.563066 32.084281,23.936867 53.03755,-1.9450902 M -0.96377277,60.005659 C 9.5515415,48.197912 21.894396,35.737663 52.803442,-0.57344012 M 0.84196274,67.844766 C 22.282273,43.075603 46.545162,15.142237 57.574989,0.91655828 M -1.2321781,66.992358 C 23.057906,40.53748 45.616809,14.45739 58.802951,-0.11268718 M -1.144179,72.598039 C 13.772583,57.335977 29.262012,39.056839 63.778689,-1.4960741 M 0.22412013,73.764146 C 25.21594,44.863299 49.353396,18.123979 63.491001,-0.50695032 M 1.3541938,78.729517 C 17.930486,60.287151 35.107753,38.188946 69.520676,2.0963902 M 0.18306123,78.989898 C 16.240227,61.031616 31.880974,42.184258 69.093772,1.0112768 M 0.44271714,86.640364 C 16.533574,64.356017 31.406251,46.594356 75.541351,0.86660002 M 0.31537531,85.72297 C 20.605285,62.841824 38.81884,39.212513 73.948988,-0.12476762 M -0.65306828,91.162692 C 14.112247,72.337972 31.294642,52.896803 80.263521,0.85565173 M 0.40486107,90.470124 C 23.940051,62.686243 49.017963,35.509594 78.726188,0.25281349 M 1.0671959,97.214094 C 27.518095,63.188087 57.854465,30.439114 83.103368,-2.1270872 M 0.40954897,97.939818 C 26.083083,66.852792 53.389302,36.802227 84.143955,0.04014901 M 0.47300859,104.99927 C 33.361488,65.66531 68.619718,24.011475 91.28448,0.47119836 M 0.96227416,104.33758 C 25.270429,75.758295 47.726744,48.798321 89.190189,0.93052651 M -1.6026677,109.21167 C 24.138309,80.609707 46.770475,53.082183 95.148821,-1.1534054 M 0.8712494,109.66137 C 37.016943,66.241397 75.006754,22.690554 94.83933,-0.59203444 M 0.29150641,116.68799 C 30.561146,84.114688 59.114853,52.664995 98.970761,-0.18636445 M 0.18122823,115.44992 C 25.99829,86.759534 51.072079,57.663509 100.27264,0.81614435 M -0.96072546,121.38339 C 24.661486,96.257454 45.349238,65.100193 108.26804,-0.29487395 M 0.3937828,122.85158 C 37.701108,77.775403 75.047517,33.092307 106.59542,0.35197306 M 3.5798753,127.7619 C 23.821776,101.7149 47.063948,74.6188 112.61582,-0.65268122 M 1.4966441,126.10853 C 25.826966,97.334072 51.844503,67.573961 111.05728,-0.86547948 M 5.7220698,125.77154 C 46.792736,79.962315 87.730585,34.086805 116.30156,1.714447 M 6.1839797,126.62569 C 38.502686,92.330068 68.988171,55.366092 116.11333,-0.04670289 M 11.582406,124.80072 C 36.869749,99.277791 60.299826,73.652064 120.41936,-0.86964649 M 11.700908,125.0208 C 37.439228,95.077307 62.06135,66.537451 120.92473,-0.43636646 M 18.896189,124.57804 C 45.384739,94.106381 71.99729,61.842813 126.96431,-1.529881 M 16.560719,127.11802 C 59.09692,77.398378 101.20095,28.429101 127.85925,-0.01794044 M 24.392103,124.60037 C 60.189978,81.294342 102.42929,35.30313 131.48735,0.81459521 M 22.325746,125.46971 C 53.547441,90.616159 86.042732,52.752717 132.55247,-0.76541308 M 26.606235,127.10801 C 51.612087,99.132556 76.497276,71.5138 135.90933,-1.5744182 M 27.827637,125.42543 C 65.786114,84.205568 103.675,39.190077 137.12803,0.425636 M 33.193049,125.98457 C 61.902815,91.166926 87.590026,59.261893 141.83199,1.6456494 M 32.884586,126.12543 C 70.680483,84.03132 106.58674,41.29169 142.91487,-0.26839082 M 39.739415,125.73207 C 72.668269,89.533784 102.76196,50.519319 147.35195,-0.1266839 M 38.5216,126.56965 C 80.900382,78.62157 121.50192,29.320093 147.66749,-0.53018254 M 44.419518,127.12552 C 77.883312,83.707499 115.79771,40.802495 152.37173,0.4628714 M 44.031671,127.36596 C 75.568392,88.3413 106.87327,52.03148 154.28318,0.09205383 M 50.089186,126.41455 C 82.917543,83.647676 118.35566,46.89101 159.41374,1.6995523 M 48.476346,127.02554 C 86.70214,82.606845 125.34534,36.784323 158.0223,-0.74648006 M 52.380209,128.52503 C 92.021508,82.147455 131.99209,33.850363 162.93129,-0.30063318 M 55.186298,127.25829 C 98.741507,78.261148 142.21948,27.421518 165.2255,-0.19360061 M 60.355254,126.71358 C 95.249658,82.307591 135.01128,40.905422 170.12255,1.3842708 M 59.822491,125.72107 C 87.468857,92.716038 116.30469,61.327444 168.53401,0.86878446 M 65.321894,127.54279 C 98.314528,87.252128 135.97806,49.233585 174.24161,-0.61800891 M 65.59646,127.08667 C 91.847695,95.480258 119.60156,64.262153 175.60683,-0.18175062 M 70.143578,125.781 C 96.683672,93.809082 125.4532,61.068719 179.41245,1.0012022 M 69.987527,127.03735 C 110.10596,81.39871 149.48422,35.170722 180.34105,-0.63922296 M 74.053658,125.37752 C 110.07297,88.196549 143.99807,46.942055 185.93992,-0.86865033 M 75.963085,127.33378 C 116.17928,79.034263 156.59998,32.934876 185.58903,-0.47566769 M 81.966363,126.36242 C 104.32632,98.75221 126.13653,73.940737 191.12377,1.2178268 M 80.695817,125.80861 C 109.88444,94.910282 137.125,64.355802 190.37872,0.72778869 M 85.29083,125.82172 C 122.31097,82.874048 158.22665,42.278091 194.56966,0.16179803 M 86.783975,127.43539 C 114.94657,92.400217 142.47865,61.148148 196.63084,-0.22549831 M 91.242068,124.7972 C 123.1868,89.811644 157.59769,50.40131 201.03493,1.559504 M 90.968602,126.32219 C 131.72225,80.428083 171.50355,33.640597 198.41103,3.1853642 M 95.654994,125.2616 C 117.63366,98.173011 142.04277,71.337013 200.36389,7.583247 M 97.353809,126.78044 C 130.59706,86.876034 164.52751,47.163635 199.27123,8.1735414 M 104.2954,125.01843 C 139.73843,82.981151 175.48124,40.622486 200.23815,13.42831 M 102.124,125.31858 C 132.57306,91.357485 162.8126,56.358349 199.40643,15.18514 M 105.67398,126.67715 C 137.61268,91.706611 164.85081,58.653512 198.95886,20.024004 M 106.76414,125.71095 C 142.52615,86.696564 177.46356,47.327505 199.84299,21.704007 M 112.35731,124.55299 C 149.62194,87.675319 181.17083,47.780346 200.8213,27.461751 M 112.77699,126.99138 C 139.97018,93.863463 167.12063,64.058831 200.21962,25.773559 m -82.43775,99.868551 c 20.4044,-22.74919 40.27898,-44.585069 80.42733,-91.445402 m -79.30581,92.325382 c 23.42471,-29.12431 47.24849,-55.507354 81.3845,-94.22993 m -74.72287,92.2293 C 143.34585,102.9286 159.58965,81.552011 198.2497,38.702306 M 123.83946,125.98731 C 149.31672,96.963188 175.5794,66.635052 198.9734,38.76141 m -68.6544,89.56253 c 18.22957,-21.93418 37.30603,-47.757728 67.30831,-81.878516 m -68.17044,80.016736 c 24.71119,-29.362066 49.99685,-58.352871 69.13924,-81.107096 m -63.63414,82.283146 c 22.06097,-29.090704 44.68529,-54.156823 62.2769,-76.097292 M 133.52012,126.40625 C 149.94705,109.5097 164.36929,92.132366 199.9314,50.66732 m -60.39945,74.81657 c 12.75624,-12.24619 25.81218,-27.409201 60.75593,-69.530634 m -61.38112,70.779324 c 23.21352,-27.418805 45.35845,-52.601623 60.804,-70.724383 m -53.21289,68.203153 c 14.48659,-16.94937 28.26592,-30.136238 53.8809,-61.513205 m -56.05416,64.103005 c 19.44754,-20.48297 38.22935,-42.234486 54.79768,-64.102239 m -49.54874,63.778009 c 14.62028,-14.98618 25.50947,-32.341975 48.59833,-58.979859 M 149.5321,125.48787 c 16.56109,-18.00122 33.08373,-35.076757 50.33975,-56.667708 m -45.49922,58.077268 c 13.38183,-13.29055 27.14253,-26.32997 43.82479,-51.145001 m -42.79807,50.180411 c 12.82232,-15.00806 24.64132,-29.188541 44.00407,-49.651782 m -36.90053,48.970722 c 5.41591,-8.44375 13.80669,-18.83592 35.00756,-43.049626 m -37.10163,44.633556 c 10.51704,-11.30269 20.00321,-23.70302 38.55135,-45.268312 m -33.29961,44.115252 c 11.11304,-14.0505 24.84548,-29.495022 32.1246,-37.5614 m -31.62933,38.62987 c 8.58836,-9.94243 17.1444,-19.00036 33.92928,-39.714068 m -27.79983,39.313898 c 7.83839,-6.81882 11.18138,-16.50252 27.1239,-33.827479 M 170.40974,125.8369 c 8.09518,-8.52441 15.91736,-16.71414 29.71185,-32.621561 m -25.74752,33.195721 c 10.10643,-7.31291 17.82628,-16.77481 25.76448,-28.595221 m -24.80432,28.107211 c 6.19089,-5.49605 11.07214,-9.69104 23.9403,-27.379741 m -16.4822,28.367331 c 4.25501,-5.49998 7.52588,-11.89129 15.11937,-22.13681 m -16.70718,20.7315 c 6.22189,-5.36456 11.65367,-11.14544 17.62613,-20.05866 M 186.1219,125.8065 c 6.81999,-2.87462 11.30163,-8.12035 11.46895,-11.70838 m -10.95615,11.7543 c 3.80693,-4.03994 8.22078,-9.34669 13.53567,-13.76051 m -6.99412,14.35502 c 0.79768,-2.27009 3.01196,-4.91192 6.99966,-8.44149 m -7.84784,7.97245 c 2.7266,-2.2191 5.02119,-4.96169 7.78782,-7.67687"
           stroke="#868e96"
           stroke-width="0.5"
           fill="none"
           id="path8"
           style="stroke-width:1.74599;stroke-miterlimit:4;stroke-dasharray:none" />
        <path
           d="M 0.40175804,1.2623184 C 61.886008,-1.1892141 122.32933,-1.7989097 195.68699,-0.20562338 M -0.19045931,0.33873318 C 43.873144,0.03621471 85.132856,-0.24677899 197.976,0.65634753 m 0.39295,0.14938783 C 199.07896,43.884726 198.26871,88.786477 195.46085,124.88431 M 196.53197,-0.37121676 C 197.33744,34.782551 196.93083,67.335867 196.78959,124.27606 m 0.58124,0.99096 C 124.7624,121.90274 48.769415,124.27846 1.3016811,126.44673 M 197.76048,124.0749 c -52.00732,0.82745 -103.846909,0.85164 -196.99402473,0.48723 M 1.5387888,123.87512 C 1.4661639,90.924465 -0.74862909,60.263249 1.5381475,-0.08041948 M -0.95588508,125.47132 C -2.2161261,100.5196 -0.72475316,73.13742 0.84138447,0.46990858"
           stroke="#000000"
           stroke-width="1"
           fill="none"
           id="path10"
           style="stroke-width:1.74599;stroke-miterlimit:4;stroke-dasharray:none" />
      </g>
      <g
         transform="matrix(0.12336056,0,0,0.12953033,16.773884,14.92523)"
         id="g18"
         style="stroke-width:1.74599;stroke-miterlimit:4;stroke-dasharray:none">
        <path
           d="m 27.486046,14.618164 c 0,0 0,0 0,0 m 0,0 c 0,0 0,0 0,0 M 7.9882045,42.745685 C 15.177966,33.686406 26.00023,26.599176 34.956107,11.178349 M 10.316777,41.262608 C 16.840614,33.042194 22.689671,27.55402 36.150955,11.654961 M 6.6785791,47.756974 C 18.019937,38.497488 25.001328,30.000641 44.524692,6.971 M 7.8924482,48.432456 C 21.155471,35.018542 33.919833,19.886896 44.340502,7.9068984 M 5.1655409,59.210372 C 22.603038,42.27006 36.658236,22.533104 52.10927,3.3759665 M 5.6404096,57.59707 C 18.397824,42.919603 32.276746,27.860188 51.734153,6.0919663 M 2.4873215,67.723949 C 15.795156,49.799075 32.678051,33.108679 59.601398,2.4655952 M 1.7040257,69.252299 C 14.686941,52.880847 28.983356,36.872231 58.517075,3.112437 M 1.6417967,72.435325 C 25.847865,48.700642 44.26591,23.650661 64.293594,2.3634706 M 2.0857194,73.029748 C 23.539442,47.586767 45.498338,22.767769 62.83106,4.3817815 M 4.094507,79.636966 C 17.102953,61.360505 33.892447,42.137 73.375141,1.5783046 M 3.5612425,78.425833 C 28.231064,49.351408 54.642398,20.595242 72.676578,-0.74769089 M 6.7714012,83.034724 C 20.07404,62.890075 36.320578,45.048424 74.503749,2.1674962 M 6.0786689,82.154066 C 28.611053,54.407202 53.14877,26.537773 76.890692,2.2724773 M 4.9683323,87.515399 C 31.75388,58.430536 57.747737,31.53121 81.32707,4.1844433 M 6.074141,88.006369 C 26.102407,63.330601 48.206795,38.818936 80.074818,2.7279529 M 9.6620302,92.046561 C 26.189519,72.033102 45.928785,50.301393 84.519479,2.5026198 M 7.189092,90.846642 C 27.318639,70.610334 44.801194,46.838369 84.037763,3.5594404 M 8.9801883,97.897019 C 39.850486,59.514028 71.420278,27.109161 89.093055,5.7153997 M 10.146583,96.924987 C 35.756743,66.321237 59.330546,37.382414 90.512948,3.3562548 M 10.8882,98.555481 C 37.505333,71.666807 60.829463,40.822332 93.835838,6.092395 M 10.844288,100.89012 C 40.604844,66.557016 69.480643,34.687914 95.002922,4.4064103 M 13.251657,102.66806 C 47.200012,67.900757 79.018468,29.204708 99.310685,7.9886984 M 14.823246,102.8206 C 38.873923,73.217249 65.50805,43.445718 98.184465,6.1996126 M 18.586735,104.48517 C 36.460891,86.185019 53.725679,65.32521 103.29354,5.8012215 M 17.42449,105.76555 C 39.366882,80.089292 60.658499,56.215312 103.7531,7.4773472 M 19.46663,107.55378 C 41.101812,87.198376 59.72692,62.902813 104.83592,8.9061949 M 19.601742,109.53055 C 42.688916,82.357952 66.541112,54.71889 105.89186,8.2641296 M 22.520416,113.12661 C 50.832904,79.575378 79.22257,48.100067 107.63955,11.087249 M 21.326511,112.18068 C 40.762864,90.89548 61.435443,68.077596 109.05212,11.389336 M 25.903129,116.38263 C 57.738764,78.585107 87.258793,46.200052 112.11884,15.472914 M 25.464439,114.35471 C 53.16422,82.722841 82.451783,50.707212 113.42238,14.518454 M 29.326449,117.10042 C 51.266289,91.172952 72.75312,64.003269 116.80737,14.228829 M 27.212217,119.03223 C 52.993871,91.449536 76.355936,64.338917 116.74095,15.939039 M 30.08937,120.33152 C 63.596917,82.209052 99.172708,44.363355 120.45215,19.759372 M 30.534523,120.30078 C 64.142403,81.59973 97.189243,43.65123 119.7965,18.8561 M 34.548292,122.62093 C 58.999984,95.291206 80.964112,66.788559 124.66859,22.362192 M 33.040348,124.67005 C 54.627997,101.14465 74.263008,78.241724 123.48926,21.140373 M 38.74011,123.39753 C 64.029457,94.077957 93.044911,65.436601 124.75449,25.203386 M 37.012347,124.55605 C 60.21694,97.622841 82.356721,71.97856 125.05128,23.397256 M 39.915947,127.72272 C 63.678178,100.92027 85.03713,75.097993 129.00104,25.217319 M 42.346814,126.12358 C 66.236209,96.389113 92.240029,67.33455 129.76362,25.960378 M 45.164241,125.68094 C 72.82219,97.688842 99.17194,65.464279 133.50682,28.081809 M 45.583025,126.77036 C 76.961138,93.307813 106.3943,56.118002 133.1767,26.960527 M 49.505075,127.58119 C 74.4801,103.0597 97.950195,74.726085 136.17668,30.627359 M 49.40381,129.42246 C 78.509958,97.740207 103.55658,67.82552 135.51534,30.82864 M 53.952669,130.89461 C 84.418932,95.899397 111.32592,64.67025 135.47211,35.284086 M 55.104306,129.5655 C 85.823288,94.295275 115.63383,59.002047 135.8354,35.836478 M 56.921825,129.94665 C 81.836836,104.56181 105.57128,77.39051 137.12979,40.264503 M 57.404643,132.03063 C 80.901654,105.98686 101.91347,80.50375 139.14864,40.373159 M 62.914665,131.83573 C 91.004591,103.22477 115.92459,71.444184 140.91199,42.010444 M 63.542934,133.00697 C 79.213513,115.25092 94.464764,96.395569 140.5793,44.485834 M 66.646772,133.89903 C 88.636268,110.27085 108.46679,86.673223 143.32513,49.375851 M 66.80767,134.60104 C 81.948363,116.46251 96.819488,99.344484 142.4889,48.156222 M 71.046048,134.12169 C 91.559559,116.12824 107.48587,95.675584 141.68224,52.564278 M 72.942823,133.33984 C 90.781498,114.00068 107.84772,94.353714 143.94506,51.331865 M 78.7228,133.35732 C 92.340307,117.18386 107.20712,99.912185 144.82158,53.311676 M 79.024184,133.48502 C 96.931877,111.92435 114.01797,90.905145 145.84623,56.202662 M 81.968592,133.73719 C 105.53075,111.0052 122.99491,88.523808 144.57668,63.106863 M 83.864467,133.53588 C 100.94475,112.63564 119.7015,94.270713 145.79807,62.515092 M 89.50663,133.1172 C 108.45116,109.90625 125.09938,91.899297 143.0237,67.563093 M 90.16994,131.77002 c 15.87247,-19.0691 33.11311,-39.461205 53.59707,-63.732491 M 96.554259,132.01536 C 106.79559,114.91563 122.17665,102.52441 142.63935,74.147934 M 95.009176,131.27465 C 113.49284,110.35894 133.41402,89.308236 143.6445,75.383874 m -42.75903,55.165416 c 12.91505,-14.64758 22.906,-26.76657 42.16588,-49.919094 M 101.2818,131.97778 c 11.58075,-13.39946 23.13744,-26.90629 43.12179,-49.42355 m -33.60568,42.02709 c 13.14556,-14.82409 22.24437,-26.905404 32.92716,-35.582732 m -31.63329,35.888492 c 7.69628,-8.30385 15.54602,-16.91331 32.10017,-36.939773"
           stroke="#15aabf"
           stroke-width="0.5"
           fill="none"
           id="path14"
           style="stroke-width:1.74599;stroke-miterlimit:4;stroke-dasharray:none" />
        <path
           d="M 71.524153,-0.44021898 C 81.971028,-1.4501024 93.866446,2.9131255 103.88338,7.3989742 c 10.01694,4.4858488 21.02948,11.3064268 27.74238,19.0758988 6.7129,7.769473 10.75324,17.623851 12.535,27.540937 1.78177,9.917087 1.24973,22.414747 -1.8444,31.961583 -3.09413,9.546837 -9.28284,18.103237 -16.72039,25.319437 -7.43755,7.2162 -17.68344,14.56697 -27.904899,17.97776 -10.22146,3.41079 -22.341941,3.72067 -33.423863,2.48701 C 53.185285,130.52793 40.318381,127.32459 31.199536,121.87262 22.080691,116.42065 14.809598,107.9549 9.5541371,99.049781 4.2986766,90.144664 0.15087894,78.497766 -0.33322668,68.441917 -0.81733229,58.386067 2.000256,47.699921 6.6495034,38.714683 11.298751,29.729446 18.6136,20.648049 27.562258,14.530493 36.510916,8.4129364 52.510253,4.3026868 60.341453,2.0093442 68.172654,-0.28399831 71.907108,0.93781646 74.549462,0.77043757 77.191815,0.60305868 76.439045,0.00958662 76.195576,1.0050709 M 99.128955,3.7079144 C 109.41109,6.488745 120.71915,16.514834 128.16239,24.068269 c 7.44324,7.553436 12.72339,15.265079 15.62601,24.960258 2.90262,9.695178 4.51606,23.046503 1.7897,33.210814 -2.72637,10.16431 -10.54203,19.948569 -18.1479,27.775049 -7.60587,7.82648 -17.6736,15.6232 -27.487324,19.18382 -9.813728,3.56062 -20.83205,3.02095 -31.395039,2.17991 C 57.984847,130.53709 45.912619,129.0049 36.56494,124.15201 27.21726,119.29911 18.44473,110.69734 12.46176,102.26074 6.4787907,93.82414 1.698131,83.786567 0.66712179,73.532419 -0.36388744,63.278271 2.4042928,50.063018 6.2757051,40.73585 10.147117,31.408682 15.649814,24.176873 23.895596,17.569408 32.141377,10.961943 44.735834,3.5346169 55.750395,1.0910584 66.764956,-1.3525001 82.559754,2.1589698 89.98296,2.9080571 c 7.423206,0.7490874 8.503099,2.2521629 10.30667,2.6775256 1.80357,0.4253627 0.77684,-0.8240199 0.51475,-0.1253494"
           stroke="#000000"
           stroke-width="1"
           fill="none"
           id="path16"
           style="stroke-width:1.74599;stroke-miterlimit:4;stroke-dasharray:none" />
      </g>
      <g
         stroke-opacity="0.8"
         fill-opacity="0.8"
         transform="matrix(0.12336056,0,0,0.12953033,2.3080861,7.4124726)"
         id="g28"
         style="stroke-width:1.74599;stroke-miterlimit:4;stroke-dasharray:none">
        <path
           d="m 0.25954006,83.701433 c 0,0 0,0 0,0 m 0,0 c 0,0 0,0 0,0 M 6.631493,88.521304 C 12.377586,77.538932 20.731006,70.434101 22.83295,62.279409 M 2.8808364,84.576965 C 11.497345,76.088475 17.975345,69.233259 23.904609,64.344513 M 7.7544801,88.509636 C 22.206942,75.801022 29.616747,60.564253 47.407968,39.057025 M 7.285601,87.24993 C 22.99275,69.789584 40.28886,52.672995 48.245854,40.663103 M 8.6925726,91.452577 C 27.177956,77.413474 35.85274,59.829275 70.606753,21.12416 M 7.5958317,90.676029 C 27.008842,72.814371 45.000405,50.757625 69.71059,22.421116 M 9.040375,96.503569 C 43.869457,57.731585 72.536594,26.809331 91.972939,-2.2259219 M 10.612859,93.883032 C 32.826269,73.223078 50.240843,46.330589 95.640972,1.4130973 M 14.966711,94.929336 C 45.664519,60.30226 68.969933,33.827244 93.505487,-0.31096946 M 14.132154,98.060821 C 40.87852,68.751011 65.27636,39.259468 97.941908,2.1839093 M 17.089621,98.234883 C 36.827426,81.651547 54.013474,57.63477 99.203238,4.1225567 M 19.005829,99.498885 C 44.251832,69.348743 70.193776,43.965861 100.81311,6.0235289 M 20.351368,98.288496 C 41.783313,80.778778 57.023941,65.511331 99.270363,9.9671836 M 23.205136,100.52382 C 41.972573,81.089937 60.820588,59.650623 103.14202,6.8472492 M 21.89343,103.44674 c 23.407974,-22.335454 42.678524,-45.429803 81.06,-91.982149 M 25.882968,106.43684 C 41.763534,87.906548 56.074787,69.842608 107.52844,11.718344 M 24.931506,106.67947 C 52.53149,72.084094 84.748172,41.449875 112.48004,14.858867 M 25.436359,108.45126 C 49.666293,83.747765 71.803887,57.616474 108.41059,14.313825 M 32.630512,113.69481 C 60.954332,79.422967 91.448155,41.353863 115.55809,19.502675 M 31.568983,108.63001 C 47.338883,86.820553 68.436985,67.229967 112.75192,14.843103 M 29.979585,111.06417 C 54.548948,90.030436 79.191373,65.842544 118.59467,22.736956 M 35.353655,110.82312 C 51.569973,94.304891 68.786103,73.892607 115.4475,17.740201 M 33.667079,118.34725 C 53.497829,94.888048 76.94551,73.567706 120.57112,20.015933 M 37.294831,113.60525 C 62.197304,88.694371 87.237432,61.153133 117.38657,22.601248 M 41.955566,116.21702 C 60.195108,90.673802 82.118602,61.761046 122.91796,25.032112 M 41.391107,117.21313 C 57.006356,97.929736 78.057953,74.721492 121.51497,25.121983 M 44.55684,122.58473 C 61.465065,96.902246 90.896619,64.44023 127.38998,29.841279 M 43.19772,120.48315 c 29.30272,-32.060666 59.86221,-66.244649 79.7,-92.447893 M 44.506911,120.72492 C 71.381083,99.899614 89.857183,70.65798 129.94113,32.987502 M 43.889046,123.78878 C 66.987899,97.280505 90.744723,72.773914 128.78145,30.048527 M 51.384949,128.15512 C 72.487612,98.685806 97.228657,69.950182 126.59963,31.628128 M 49.665046,126.7328 C 76.449694,95.170235 104.10728,62.01772 128.65696,32.781362 M 49.81252,129.742 C 83.7964,91.209197 114.72869,56.346201 131.34289,33.658788 M 52.437996,128.06599 C 70.750311,108.09327 91.632451,85.197428 134.32166,33.702939 M 53.392233,134.35466 C 80.298111,102.00613 107.46448,65.596014 133.97254,33.838392 M 53.958636,131.15286 C 81.233157,101.88081 108.33482,70.167441 137.94211,37.069543 M 57.206974,131.97076 C 84.803664,106.69919 108.88789,84.763657 141.98944,41.914134 M 58.502906,135.89033 C 79.279554,108.42943 100.48387,87.497821 140.11653,38.862072 M 63.038846,138.55624 C 86.740792,111.71542 110.82173,78.846321 137.8126,43.501196 M 60.278386,136.39992 C 81.803809,111.5084 103.36078,88.643018 143.28121,42.478241 M 61.244173,140.19032 C 86.796843,116.91875 104.82637,86.979947 147.27844,49.188915 M 61.486799,139.96525 C 94.547024,100.28983 125.58771,66.400683 142.39724,44.651244 M 64.628498,145.19051 C 95.818842,102.17085 133.29037,68.360266 145.5794,51.194035 M 64.386505,143.96957 C 90.123975,119.77677 111.6282,93.329098 147.07669,46.915516 M 66.32158,144.23759 c 14.446411,-12.96532 36.40683,-38.86295 83.44164,-95.770715 M 69.355008,142.83322 C 95.034924,115.21066 125.01482,81.365851 152.26934,49.525389 M 73.652399,146.50063 C 100.1562,118.13688 125.85257,83.889504 151.95184,55.571033 M 70.951449,148.95116 C 102.24593,109.6827 136.4096,74.983679 151.66909,55.147308 M 74.024154,147.76199 C 103.8649,115.10163 138.67254,79.152405 153.21643,58.808388 M 75.979114,151.63047 C 100.20878,123.15907 123.38315,98.320167 157.77649,57.797324 M 76.789262,150.54228 C 97.255383,133.28689 110.61687,114.20073 161.45237,56.344102 M 79.547926,154.02782 C 109.86045,118.1922 141.76809,81.068647 159.96124,57.778598 M 79.124357,156.22542 C 107.21786,126.57159 127.37674,102.11081 161.25427,62.331618 M 79.13695,156.08699 c 26.52024,-27.9406 51.61273,-58.110714 81.3877,-93.468087 M 83.905296,161.18361 C 107.26801,129.98873 126.22983,104.47696 167.79096,67.037658 M 82.656892,159.47638 C 113.92532,124.57911 142.92188,86.82101 164.76221,66.008117 M 89.58215,156.90232 c 30.85193,-38.51549 59.49128,-70.139465 75.09832,-91.935091 M 86.512597,162.5265 C 118.92189,125.94235 146.40455,88.385363 169.02602,68.735731 M 92.054213,166.1053 C 117.66389,134.64588 139.59924,105.1675 173.86507,70.988615 M 91.665554,165.16746 C 119.60473,129.38457 148.50799,97.004437 170.78734,69.628345 M 90.544994,162.87958 C 119.41513,133.02316 154.75946,97.377715 177.48624,68.458385 M 93.696389,163.86648 C 116.26091,141.06052 139.49902,115.28098 172.69906,70.487166 M 97.477223,164.80049 C 114.56196,147.1022 134.17092,127.88393 179.75966,73.346386 M 94.86737,168.56541 c 25.40873,-32.42023 53.85686,-62.28644 81.79084,-93.539898 m -60.62859,71.389828 c 20.80479,-12.38261 29.67772,-33.35542 60.16459,-71.299881 m -58.32753,71.861421 c 25.27629,-27.33927 48.78871,-52.519493 61.34573,-68.41586 m -40.24583,48.73127 c 13.1415,-12.9697 28.29961,-27.563617 47.12456,-45.464694 m -43.26555,47.618164 c 12.67272,-17.58403 28.16472,-34.520534 41.421,-49.511452 m -18.6881,32.287202 c 4.41062,-7.7046 10.31128,-13.951405 20.92424,-31.424313 m -22.05644,27.165493 c 6.74187,-4.01882 11.55813,-12.61407 22.68287,-24.987958"
           stroke="#fab005"
           stroke-width="0.5"
           fill="none"
           id="path24"
           style="stroke-width:1.74599;stroke-miterlimit:4;stroke-dasharray:none" />
        <path
           d="M 94.193108,1.5034938 C 120.53989,28.833642 149.44279,50.102308 184.73295,83.10205 M 92.923092,0.55532927 C 118.04517,23.600199 145.79784,43.866829 187.41555,83.083958 m -2.12241,1.097379 C 151.20668,120.14838 111.98875,144.58595 97.737044,164.86185 M 185.38172,84.206126 c -14.8437,15.52417 -37.51591,31.606964 -93.351383,80.176824 m 1.1932,0.98785 C 72.130985,144.435 42.558962,119.9771 -3.3036168,87.115813 M 92.463779,167.09034 C 57.108302,134.40439 19.046019,101.8097 -0.84369907,85.802027 M 1.8328092,83.533907 C 33.147323,48.020174 73.666565,15.251401 96.377444,1.5955019 M 1.9373845,83.487702 C 27.145678,58.119837 56.622947,32.791333 93.633837,0.95488567"
           stroke="#000000"
           stroke-width="1"
           fill="none"
           id="path26"
           style="stroke-width:1.74599;stroke-miterlimit:4;stroke-dasharray:none" />
      </g>
    </g>
  </g>
</svg>
