<?xml version="1.0" encoding="UTF-8" standalone="no"?>
<!DOCTYPE svg PUBLIC "-//W3C//DTD SVG 1.1//EN"
 "http://www.w3.org/Graphics/SVG/1.1/DTD/svg11.dtd">
<!-- Generated by graphviz version 2.40.1 (20161225.0304)
 -->
<!-- Title: state transitions Pages: 1 -->
<svg width="425pt" height="434pt"
 viewBox="0.00 0.00 425.00 434.00" xmlns="http://www.w3.org/2000/svg" xmlns:xlink="http://www.w3.org/1999/xlink">
<g id="graph0" class="graph" transform="scale(1 1) rotate(0) translate(4 430)">
<title>state transitions</title>
<polygon fill="#ffffff" stroke="transparent" points="-4,4 -4,-430 421,-430 421,4 -4,4"/>
<g id="clust1" class="cluster state regular">
<title>cluster_fsm_state</title>
<path fill="none" stroke="#000000" stroke-width="2" d="M20,-8C20,-8 397,-8 397,-8 403,-8 409,-14 409,-20 409,-20 409,-406 409,-406 409,-412 403,-418 397,-418 397,-418 20,-418 20,-418 14,-418 8,-412 8,-406 8,-406 8,-20 8,-20 8,-14 14,-8 20,-8"/>
<text text-anchor="start" x="182.4942" y="-399.2" font-family="Helvetica,sans-Serif" font-size="12.00" fill="#000000">fsm_state</text>
</g>
<!-- fsm_state -->
<!-- ST_IDLE -->
<g id="node2" class="node state regular">
<title>ST_IDLE</title>
<polygon fill="#ffffff" fill-opacity="0.003922" stroke="transparent" stroke-width="2" points="106,-134 36,-134 36,-98 106,-98 106,-134"/>
<text text-anchor="start" x="46.6622" y="-112.2" font-family="Helvetica,sans-Serif" font-size="12.00" fill="#000000">ST_IDLE</text>
<path fill="none" stroke="#000000" stroke-width="2" d="M48.3333,-99C48.3333,-99 93.6667,-99 93.6667,-99 99.3333,-99 105,-104.6667 105,-110.3333 105,-110.3333 105,-121.6667 105,-121.6667 105,-127.3333 99.3333,-133 93.6667,-133 93.6667,-133 48.3333,-133 48.3333,-133 42.6667,-133 37,-127.3333 37,-121.6667 37,-121.6667 37,-110.3333 37,-110.3333 37,-104.6667 42.6667,-99 48.3333,-99"/>
</g>
<!-- start_state -->
<g id="node10" class="node state regular">
<title>start_state</title>
<polygon fill="#ffffff" fill-opacity="0.003922" stroke="transparent" stroke-width="2" points="110,-52 32,-52 32,-16 110,-16 110,-52"/>
<text text-anchor="start" x="42.9914" y="-30.2" font-family="Helvetica,sans-Serif" font-size="12.00" fill="#000000">start_state</text>
<path fill="none" stroke="#ff0000" stroke-width="2" d="M44.3333,-17C44.3333,-17 97.6667,-17 97.6667,-17 103.3333,-17 109,-22.6667 109,-28.3333 109,-28.3333 109,-39.6667 109,-39.6667 109,-45.3333 103.3333,-51 97.6667,-51 97.6667,-51 44.3333,-51 44.3333,-51 38.6667,-51 33,-45.3333 33,-39.6667 33,-39.6667 33,-28.3333 33,-28.3333 33,-22.6667 38.6667,-17 44.3333,-17"/>
</g>
<!-- ST_IDLE&#45;&gt;start_state -->
<g id="edge1" class="edge transition">
<title>ST_IDLE&#45;&gt;start_state</title>
<path fill="none" stroke="#ff0000" d="M71,-97.8015C71,-87.3976 71,-74.1215 71,-62.3768"/>
<polygon fill="#ff0000" stroke="#ff0000" points="74.5001,-62.1476 71,-52.1476 67.5001,-62.1476 74.5001,-62.1476"/>
<text text-anchor="start" x="71" y="-72" font-family="Helvetica,sans-Serif" font-size="10.00" fill="#ff0000">pi_trg = &#39;1&#39; &#160;&#160;</text>
</g>
<!-- ST_CONF -->
<g id="node3" class="node state regular">
<title>ST_CONF</title>
<polygon fill="#ffffff" fill-opacity="0.003922" stroke="transparent" stroke-width="2" points="378.5,-380 301.5,-380 301.5,-344 378.5,-344 378.5,-380"/>
<text text-anchor="start" x="312.5022" y="-358.2" font-family="Helvetica,sans-Serif" font-size="12.00" fill="#000000">ST_CONF</text>
<path fill="none" stroke="#000000" stroke-width="2" d="M313.8333,-345C313.8333,-345 366.1667,-345 366.1667,-345 371.8333,-345 377.5,-350.6667 377.5,-356.3333 377.5,-356.3333 377.5,-367.6667 377.5,-367.6667 377.5,-373.3333 371.8333,-379 366.1667,-379 366.1667,-379 313.8333,-379 313.8333,-379 308.1667,-379 302.5,-373.3333 302.5,-367.6667 302.5,-367.6667 302.5,-356.3333 302.5,-356.3333 302.5,-350.6667 308.1667,-345 313.8333,-345"/>
</g>
<!-- ST_START_TIMER -->
<g id="node4" class="node state regular">
<title>ST_START_TIMER</title>
<polygon fill="#ffffff" fill-opacity="0.003922" stroke="transparent" stroke-width="2" points="331.5,-298 204.5,-298 204.5,-262 331.5,-262 331.5,-298"/>
<text text-anchor="start" x="215.8344" y="-276.2" font-family="Helvetica,sans-Serif" font-size="12.00" fill="#000000">ST_START_TIMER</text>
<path fill="none" stroke="#000000" stroke-width="2" d="M216.8333,-263C216.8333,-263 319.1667,-263 319.1667,-263 324.8333,-263 330.5,-268.6667 330.5,-274.3333 330.5,-274.3333 330.5,-285.6667 330.5,-285.6667 330.5,-291.3333 324.8333,-297 319.1667,-297 319.1667,-297 216.8333,-297 216.8333,-297 211.1667,-297 205.5,-291.3333 205.5,-285.6667 205.5,-285.6667 205.5,-274.3333 205.5,-274.3333 205.5,-268.6667 211.1667,-263 216.8333,-263"/>
</g>
<!-- ST_CONF&#45;&gt;ST_START_TIMER -->
<g id="edge2" class="edge transition">
<title>ST_CONF&#45;&gt;ST_START_TIMER</title>
<path fill="none" stroke="#000000" d="M328.2041,-343.9493C321.9988,-334.9266 314.0264,-324.0348 306,-315 303.1183,-311.7563 299.9688,-308.4888 296.7556,-305.3222"/>
<polygon fill="#000000" stroke="#000000" points="298.8976,-302.5292 289.2386,-298.1754 294.0743,-307.6023 298.8976,-302.5292"/>
<text text-anchor="start" x="315" y="-318" font-family="Helvetica,sans-Serif" font-size="10.00" fill="#000000">pi_grant = &#39;1&#39; &#160;&#160;</text>
</g>
<!-- ST_WAIT_TIMER -->
<g id="node5" class="node state regular">
<title>ST_WAIT_TIMER</title>
<polygon fill="#ffffff" fill-opacity="0.003922" stroke="transparent" stroke-width="2" points="326.5,-216 209.5,-216 209.5,-180 326.5,-180 326.5,-216"/>
<text text-anchor="start" x="220.5018" y="-194.2" font-family="Helvetica,sans-Serif" font-size="12.00" fill="#000000">ST_WAIT_TIMER</text>
<path fill="none" stroke="#000000" stroke-width="2" d="M221.8333,-181C221.8333,-181 314.1667,-181 314.1667,-181 319.8333,-181 325.5,-186.6667 325.5,-192.3333 325.5,-192.3333 325.5,-203.6667 325.5,-203.6667 325.5,-209.3333 319.8333,-215 314.1667,-215 314.1667,-215 221.8333,-215 221.8333,-215 216.1667,-215 210.5,-209.3333 210.5,-203.6667 210.5,-203.6667 210.5,-192.3333 210.5,-192.3333 210.5,-186.6667 216.1667,-181 221.8333,-181"/>
</g>
<!-- ST_START_TIMER&#45;&gt;ST_WAIT_TIMER -->
<g id="edge3" class="edge transition">
<title>ST_START_TIMER&#45;&gt;ST_WAIT_TIMER</title>
<path fill="none" stroke="#000000" d="M268,-261.8015C268,-251.3976 268,-238.1215 268,-226.3768"/>
<polygon fill="#000000" stroke="#000000" points="271.5001,-226.1476 268,-216.1476 264.5001,-226.1476 271.5001,-226.1476"/>
<text text-anchor="start" x="268" y="-236" font-family="Helvetica,sans-Serif" font-size="10.00" fill="#000000">pi_i2c_done = &#39;1&#39; &#160;&#160;</text>
</g>
<!-- state_to_comeback -->
<g id="node11" class="node state regular">
<title>state_to_comeback</title>
<polygon fill="#ffffff" fill-opacity="0.003922" stroke="transparent" stroke-width="2" points="331,-134 205,-134 205,-98 331,-98 331,-134"/>
<text text-anchor="start" x="215.9818" y="-112.2" font-family="Helvetica,sans-Serif" font-size="12.00" fill="#000000">state_to_comeback</text>
<path fill="none" stroke="#ff0000" stroke-width="2" d="M217.3333,-99C217.3333,-99 318.6667,-99 318.6667,-99 324.3333,-99 330,-104.6667 330,-110.3333 330,-110.3333 330,-121.6667 330,-121.6667 330,-127.3333 324.3333,-133 318.6667,-133 318.6667,-133 217.3333,-133 217.3333,-133 211.6667,-133 206,-127.3333 206,-121.6667 206,-121.6667 206,-110.3333 206,-110.3333 206,-104.6667 211.6667,-99 217.3333,-99"/>
</g>
<!-- ST_WAIT_TIMER&#45;&gt;state_to_comeback -->
<g id="edge4" class="edge transition">
<title>ST_WAIT_TIMER&#45;&gt;state_to_comeback</title>
<path fill="none" stroke="#ff0000" d="M268,-179.8015C268,-169.3976 268,-156.1215 268,-144.3768"/>
<polygon fill="#ff0000" stroke="#ff0000" points="271.5001,-144.1476 268,-134.1476 264.5001,-144.1476 271.5001,-144.1476"/>
<text text-anchor="start" x="268" y="-154" font-family="Helvetica,sans-Serif" font-size="10.00" fill="#ff0000">timer = 0 &#160;&#160;</text>
</g>
<!-- ST_CMD_POINTER -->
<g id="node6" class="node state regular">
<title>ST_CMD_POINTER</title>
<polygon fill="#ffffff" fill-opacity="0.003922" stroke="transparent" stroke-width="2" points="279.5,-380 148.5,-380 148.5,-344 279.5,-344 279.5,-380"/>
<text text-anchor="start" x="159.8364" y="-358.2" font-family="Helvetica,sans-Serif" font-size="12.00" fill="#000000">ST_CMD_POINTER</text>
<path fill="none" stroke="#000000" stroke-width="2" d="M160.8333,-345C160.8333,-345 267.1667,-345 267.1667,-345 272.8333,-345 278.5,-350.6667 278.5,-356.3333 278.5,-356.3333 278.5,-367.6667 278.5,-367.6667 278.5,-373.3333 272.8333,-379 267.1667,-379 267.1667,-379 160.8333,-379 160.8333,-379 155.1667,-379 149.5,-373.3333 149.5,-367.6667 149.5,-367.6667 149.5,-356.3333 149.5,-356.3333 149.5,-350.6667 155.1667,-345 160.8333,-345"/>
</g>
<!-- ST_CMD_POINTER&#45;&gt;ST_START_TIMER -->
<g id="edge5" class="edge transition">
<title>ST_CMD_POINTER&#45;&gt;ST_START_TIMER</title>
<path fill="none" stroke="#000000" d="M222.755,-343.6615C227.2652,-334.768 233.0873,-324.0734 239.167,-315 241.1555,-312.0324 243.3449,-309.0172 245.6016,-306.0645"/>
<polygon fill="#000000" stroke="#000000" points="248.5331,-308.0019 252.0283,-298.0002 243.0588,-303.6392 248.5331,-308.0019"/>
<text text-anchor="start" x="239" y="-318" font-family="Helvetica,sans-Serif" font-size="10.00" fill="#000000">pi_grant = &#39;1&#39; &#160;&#160;</text>
</g>
<!-- ST_CMD_READ -->
<g id="node7" class="node state regular">
<title>ST_CMD_READ</title>
<polygon fill="#ffffff" fill-opacity="0.003922" stroke="transparent" stroke-width="2" points="126.5,-380 15.5,-380 15.5,-344 126.5,-344 126.5,-380"/>
<text text-anchor="start" x="26.8366" y="-358.2" font-family="Helvetica,sans-Serif" font-size="12.00" fill="#000000">ST_CMD_READ</text>
<path fill="none" stroke="#000000" stroke-width="2" d="M27.8333,-345C27.8333,-345 114.1667,-345 114.1667,-345 119.8333,-345 125.5,-350.6667 125.5,-356.3333 125.5,-356.3333 125.5,-367.6667 125.5,-367.6667 125.5,-373.3333 119.8333,-379 114.1667,-379 114.1667,-379 27.8333,-379 27.8333,-379 22.1667,-379 16.5,-373.3333 16.5,-367.6667 16.5,-367.6667 16.5,-356.3333 16.5,-356.3333 16.5,-350.6667 22.1667,-345 27.8333,-345"/>
</g>
<!-- ST_READ_HDC -->
<g id="node8" class="node state regular">
<title>ST_READ_HDC</title>
<polygon fill="#ffffff" fill-opacity="0.003922" stroke="transparent" stroke-width="2" points="125.5,-298 16.5,-298 16.5,-262 125.5,-262 125.5,-298"/>
<text text-anchor="start" x="27.5026" y="-276.2" font-family="Helvetica,sans-Serif" font-size="12.00" fill="#000000">ST_READ_HDC</text>
<path fill="none" stroke="#000000" stroke-width="2" d="M28.8333,-263C28.8333,-263 113.1667,-263 113.1667,-263 118.8333,-263 124.5,-268.6667 124.5,-274.3333 124.5,-274.3333 124.5,-285.6667 124.5,-285.6667 124.5,-291.3333 118.8333,-297 113.1667,-297 113.1667,-297 28.8333,-297 28.8333,-297 23.1667,-297 17.5,-291.3333 17.5,-285.6667 17.5,-285.6667 17.5,-274.3333 17.5,-274.3333 17.5,-268.6667 23.1667,-263 28.8333,-263"/>
</g>
<!-- ST_CMD_READ&#45;&gt;ST_READ_HDC -->
<g id="edge6" class="edge transition">
<title>ST_CMD_READ&#45;&gt;ST_READ_HDC</title>
<path fill="none" stroke="#000000" d="M71,-343.8015C71,-333.3976 71,-320.1215 71,-308.3768"/>
<polygon fill="#000000" stroke="#000000" points="74.5001,-308.1476 71,-298.1476 67.5001,-308.1476 74.5001,-308.1476"/>
<text text-anchor="start" x="71" y="-318" font-family="Helvetica,sans-Serif" font-size="10.00" fill="#000000">pi_grant = &#39;1&#39; &#160;&#160;</text>
</g>
<!-- ST_PROVIDE -->
<g id="node9" class="node state regular">
<title>ST_PROVIDE</title>
<polygon fill="#ffffff" fill-opacity="0.003922" stroke="transparent" stroke-width="2" points="120,-216 22,-216 22,-180 120,-180 120,-216"/>
<text text-anchor="start" x="32.996" y="-194.2" font-family="Helvetica,sans-Serif" font-size="12.00" fill="#000000">ST_PROVIDE</text>
<path fill="none" stroke="#000000" stroke-width="2" d="M34.3333,-181C34.3333,-181 107.6667,-181 107.6667,-181 113.3333,-181 119,-186.6667 119,-192.3333 119,-192.3333 119,-203.6667 119,-203.6667 119,-209.3333 113.3333,-215 107.6667,-215 107.6667,-215 34.3333,-215 34.3333,-215 28.6667,-215 23,-209.3333 23,-203.6667 23,-203.6667 23,-192.3333 23,-192.3333 23,-186.6667 28.6667,-181 34.3333,-181"/>
</g>
<!-- ST_READ_HDC&#45;&gt;ST_PROVIDE -->
<g id="edge7" class="edge transition">
<title>ST_READ_HDC&#45;&gt;ST_PROVIDE</title>
<path fill="none" stroke="#000000" d="M71,-261.8015C71,-251.3976 71,-238.1215 71,-226.3768"/>
<polygon fill="#000000" stroke="#000000" points="74.5001,-226.1476 71,-216.1476 67.5001,-226.1476 74.5001,-226.1476"/>
<text text-anchor="start" x="71" y="-236" font-family="Helvetica,sans-Serif" font-size="10.00" fill="#000000">pi_i2c_done = &#39;1&#39; &#160;&#160;</text>
</g>
<!-- ST_PROVIDE&#45;&gt;ST_IDLE -->
<g id="edge8" class="edge transition">
<title>ST_PROVIDE&#45;&gt;ST_IDLE</title>
<path fill="none" stroke="#000000" d="M71,-179.8015C71,-169.3976 71,-156.1215 71,-144.3768"/>
<polygon fill="#000000" stroke="#000000" points="74.5001,-144.1476 71,-134.1476 67.5001,-144.1476 74.5001,-144.1476"/>
<text text-anchor="middle" x="72.3895" y="-154" font-family="Helvetica,sans-Serif" font-size="10.00" fill="#000000"> </text>
</g>
</g>
</svg>
