<?xml version="1.0" encoding="UTF-8" standalone="no"?>
<!DOCTYPE svg PUBLIC "-//W3C//DTD SVG 1.1//EN"
 "http://www.w3.org/Graphics/SVG/1.1/DTD/svg11.dtd">
<!-- Generated by graphviz version 2.40.1 (20161225.0304)
 -->
<!-- Title: state transitions Pages: 1 -->
<svg width="188pt" height="844pt"
 viewBox="0.00 0.00 188.00 844.00" xmlns="http://www.w3.org/2000/svg" xmlns:xlink="http://www.w3.org/1999/xlink">
<g id="graph0" class="graph" transform="scale(1 1) rotate(0) translate(4 840)">
<title>state transitions</title>
<polygon fill="#ffffff" stroke="transparent" points="-4,4 -4,-840 184,-840 184,4 -4,4"/>
<g id="clust1" class="cluster state regular">
<title>cluster_fsm_state</title>
<path fill="none" stroke="#000000" stroke-width="2" d="M20,-8C20,-8 160,-8 160,-8 166,-8 172,-14 172,-20 172,-20 172,-816 172,-816 172,-822 166,-828 160,-828 160,-828 20,-828 20,-828 14,-828 8,-822 8,-816 8,-816 8,-20 8,-20 8,-14 14,-8 20,-8"/>
<text text-anchor="start" x="63.9942" y="-809.2" font-family="Helvetica,sans-Serif" font-size="12.00" fill="#000000">fsm_state</text>
</g>
<!-- fsm_state -->
<!-- ST_IDLE -->
<g id="node2" class="node state regular">
<title>ST_IDLE</title>
<polygon fill="#ffffff" fill-opacity="0.003922" stroke="transparent" stroke-width="2" points="125,-790 55,-790 55,-754 125,-754 125,-790"/>
<text text-anchor="start" x="65.6622" y="-768.2" font-family="Helvetica,sans-Serif" font-size="12.00" fill="#000000">ST_IDLE</text>
<path fill="none" stroke="#000000" stroke-width="2" d="M67.3333,-755C67.3333,-755 112.6667,-755 112.6667,-755 118.3333,-755 124,-760.6667 124,-766.3333 124,-766.3333 124,-777.6667 124,-777.6667 124,-783.3333 118.3333,-789 112.6667,-789 112.6667,-789 67.3333,-789 67.3333,-789 61.6667,-789 56,-783.3333 56,-777.6667 56,-777.6667 56,-766.3333 56,-766.3333 56,-760.6667 61.6667,-755 67.3333,-755"/>
</g>
<!-- ST_GET_CFG -->
<g id="node3" class="node state regular">
<title>ST_GET_CFG</title>
<polygon fill="#ffffff" fill-opacity="0.003922" stroke="transparent" stroke-width="2" points="140,-708 40,-708 40,-672 140,-672 140,-708"/>
<text text-anchor="start" x="50.664" y="-686.2" font-family="Helvetica,sans-Serif" font-size="12.00" fill="#000000">ST_GET_CFG</text>
<path fill="none" stroke="#000000" stroke-width="2" d="M52.3333,-673C52.3333,-673 127.6667,-673 127.6667,-673 133.3333,-673 139,-678.6667 139,-684.3333 139,-684.3333 139,-695.6667 139,-695.6667 139,-701.3333 133.3333,-707 127.6667,-707 127.6667,-707 52.3333,-707 52.3333,-707 46.6667,-707 41,-701.3333 41,-695.6667 41,-695.6667 41,-684.3333 41,-684.3333 41,-678.6667 46.6667,-673 52.3333,-673"/>
</g>
<!-- ST_IDLE&#45;&gt;ST_GET_CFG -->
<g id="edge1" class="edge transition">
<title>ST_IDLE&#45;&gt;ST_GET_CFG</title>
<path fill="none" stroke="#000000" d="M90,-753.8015C90,-743.3976 90,-730.1215 90,-718.3768"/>
<polygon fill="#000000" stroke="#000000" points="93.5001,-718.1476 90,-708.1476 86.5001,-718.1476 93.5001,-718.1476"/>
<text text-anchor="start" x="90" y="-728" font-family="Helvetica,sans-Serif" font-size="10.00" fill="#000000">pi_trg = &#39;1&#39; &#160;&#160;</text>
</g>
<!-- ST_SET_CFG -->
<g id="node4" class="node state regular">
<title>ST_SET_CFG</title>
<polygon fill="#ffffff" fill-opacity="0.003922" stroke="transparent" stroke-width="2" points="139.5,-626 40.5,-626 40.5,-590 139.5,-590 139.5,-626"/>
<text text-anchor="start" x="51.83" y="-604.2" font-family="Helvetica,sans-Serif" font-size="12.00" fill="#000000">ST_SET_CFG</text>
<path fill="none" stroke="#000000" stroke-width="2" d="M52.8333,-591C52.8333,-591 127.1667,-591 127.1667,-591 132.8333,-591 138.5,-596.6667 138.5,-602.3333 138.5,-602.3333 138.5,-613.6667 138.5,-613.6667 138.5,-619.3333 132.8333,-625 127.1667,-625 127.1667,-625 52.8333,-625 52.8333,-625 47.1667,-625 41.5,-619.3333 41.5,-613.6667 41.5,-613.6667 41.5,-602.3333 41.5,-602.3333 41.5,-596.6667 47.1667,-591 52.8333,-591"/>
</g>
<!-- ST_GET_CFG&#45;&gt;ST_SET_CFG -->
<g id="edge2" class="edge transition">
<title>ST_GET_CFG&#45;&gt;ST_SET_CFG</title>
<path fill="none" stroke="#000000" d="M90,-671.8015C90,-661.3976 90,-648.1215 90,-636.3768"/>
<polygon fill="#000000" stroke="#000000" points="93.5001,-636.1476 90,-626.1476 86.5001,-636.1476 93.5001,-636.1476"/>
<text text-anchor="middle" x="91.3895" y="-646" font-family="Helvetica,sans-Serif" font-size="10.00" fill="#000000"> </text>
</g>
<!-- ST_WRITE_CFG -->
<g id="node5" class="node state regular">
<title>ST_WRITE_CFG</title>
<polygon fill="#ffffff" fill-opacity="0.003922" stroke="transparent" stroke-width="2" points="147,-544 33,-544 33,-508 147,-508 147,-544"/>
<text text-anchor="start" x="43.6692" y="-522.2" font-family="Helvetica,sans-Serif" font-size="12.00" fill="#000000">ST_WRITE_CFG</text>
<path fill="none" stroke="#000000" stroke-width="2" d="M45.3333,-509C45.3333,-509 134.6667,-509 134.6667,-509 140.3333,-509 146,-514.6667 146,-520.3333 146,-520.3333 146,-531.6667 146,-531.6667 146,-537.3333 140.3333,-543 134.6667,-543 134.6667,-543 45.3333,-543 45.3333,-543 39.6667,-543 34,-537.3333 34,-531.6667 34,-531.6667 34,-520.3333 34,-520.3333 34,-514.6667 39.6667,-509 45.3333,-509"/>
</g>
<!-- ST_SET_CFG&#45;&gt;ST_WRITE_CFG -->
<g id="edge3" class="edge transition">
<title>ST_SET_CFG&#45;&gt;ST_WRITE_CFG</title>
<path fill="none" stroke="#000000" d="M90,-589.8015C90,-579.3976 90,-566.1215 90,-554.3768"/>
<polygon fill="#000000" stroke="#000000" points="93.5001,-554.1476 90,-544.1476 86.5001,-554.1476 93.5001,-554.1476"/>
<text text-anchor="middle" x="91.3895" y="-564" font-family="Helvetica,sans-Serif" font-size="10.00" fill="#000000"> </text>
</g>
<!-- ST_WAIT_CFG_DONE -->
<g id="node6" class="node state regular">
<title>ST_WAIT_CFG_DONE</title>
<polygon fill="#ffffff" fill-opacity="0.003922" stroke="transparent" stroke-width="2" points="163.5,-462 16.5,-462 16.5,-426 163.5,-426 163.5,-462"/>
<text text-anchor="start" x="27.8336" y="-440.2" font-family="Helvetica,sans-Serif" font-size="12.00" fill="#000000">ST_WAIT_CFG_DONE</text>
<path fill="none" stroke="#000000" stroke-width="2" d="M28.8333,-427C28.8333,-427 151.1667,-427 151.1667,-427 156.8333,-427 162.5,-432.6667 162.5,-438.3333 162.5,-438.3333 162.5,-449.6667 162.5,-449.6667 162.5,-455.3333 156.8333,-461 151.1667,-461 151.1667,-461 28.8333,-461 28.8333,-461 23.1667,-461 17.5,-455.3333 17.5,-449.6667 17.5,-449.6667 17.5,-438.3333 17.5,-438.3333 17.5,-432.6667 23.1667,-427 28.8333,-427"/>
</g>
<!-- ST_WRITE_CFG&#45;&gt;ST_WAIT_CFG_DONE -->
<g id="edge4" class="edge transition">
<title>ST_WRITE_CFG&#45;&gt;ST_WAIT_CFG_DONE</title>
<path fill="none" stroke="#000000" d="M90,-507.8015C90,-497.3976 90,-484.1215 90,-472.3768"/>
<polygon fill="#000000" stroke="#000000" points="93.5001,-472.1476 90,-462.1476 86.5001,-472.1476 93.5001,-472.1476"/>
<text text-anchor="start" x="90" y="-482" font-family="Helvetica,sans-Serif" font-size="10.00" fill="#000000">pi_grant = &#39;1&#39; &#160;&#160;</text>
</g>
<!-- ST_READ -->
<g id="node8" class="node state regular">
<title>ST_READ</title>
<polygon fill="#ffffff" fill-opacity="0.003922" stroke="transparent" stroke-width="2" points="119.5,-380 42.5,-380 42.5,-344 119.5,-344 119.5,-380"/>
<text text-anchor="start" x="53.8322" y="-358.2" font-family="Helvetica,sans-Serif" font-size="12.00" fill="#000000">ST_READ</text>
<path fill="none" stroke="#000000" stroke-width="2" d="M54.8333,-345C54.8333,-345 107.1667,-345 107.1667,-345 112.8333,-345 118.5,-350.6667 118.5,-356.3333 118.5,-356.3333 118.5,-367.6667 118.5,-367.6667 118.5,-373.3333 112.8333,-379 107.1667,-379 107.1667,-379 54.8333,-379 54.8333,-379 49.1667,-379 43.5,-373.3333 43.5,-367.6667 43.5,-367.6667 43.5,-356.3333 43.5,-356.3333 43.5,-350.6667 49.1667,-345 54.8333,-345"/>
</g>
<!-- ST_WAIT_CFG_DONE&#45;&gt;ST_READ -->
<g id="edge5" class="edge transition">
<title>ST_WAIT_CFG_DONE&#45;&gt;ST_READ</title>
<path fill="none" stroke="#000000" d="M88.0026,-425.8015C86.8607,-415.3976 85.4036,-402.1215 84.1145,-390.3768"/>
<polygon fill="#000000" stroke="#000000" points="87.562,-389.706 82.9918,-380.1476 80.6038,-390.4698 87.562,-389.706"/>
<text text-anchor="start" x="86" y="-400" font-family="Helvetica,sans-Serif" font-size="10.00" fill="#000000">pi_i2c_done = &#39;1&#39; &#160;&#160;</text>
</g>
<!-- ST_START_TIMER -->
<g id="node7" class="node state regular">
<title>ST_START_TIMER</title>
<polygon fill="#ffffff" fill-opacity="0.003922" stroke="transparent" stroke-width="2" points="143.5,-134 16.5,-134 16.5,-98 143.5,-98 143.5,-134"/>
<text text-anchor="start" x="27.8344" y="-112.2" font-family="Helvetica,sans-Serif" font-size="12.00" fill="#000000">ST_START_TIMER</text>
<path fill="none" stroke="#000000" stroke-width="2" d="M28.8333,-99C28.8333,-99 131.1667,-99 131.1667,-99 136.8333,-99 142.5,-104.6667 142.5,-110.3333 142.5,-110.3333 142.5,-121.6667 142.5,-121.6667 142.5,-127.3333 136.8333,-133 131.1667,-133 131.1667,-133 28.8333,-133 28.8333,-133 23.1667,-133 17.5,-127.3333 17.5,-121.6667 17.5,-121.6667 17.5,-110.3333 17.5,-110.3333 17.5,-104.6667 23.1667,-99 28.8333,-99"/>
</g>
<!-- state_to_comeback -->
<g id="node11" class="node state regular">
<title>state_to_comeback</title>
<polygon fill="#ffffff" fill-opacity="0.003922" stroke="transparent" stroke-width="2" points="143,-52 17,-52 17,-16 143,-16 143,-52"/>
<text text-anchor="start" x="27.9818" y="-30.2" font-family="Helvetica,sans-Serif" font-size="12.00" fill="#000000">state_to_comeback</text>
<path fill="none" stroke="#ff0000" stroke-width="2" d="M29.3333,-17C29.3333,-17 130.6667,-17 130.6667,-17 136.3333,-17 142,-22.6667 142,-28.3333 142,-28.3333 142,-39.6667 142,-39.6667 142,-45.3333 136.3333,-51 130.6667,-51 130.6667,-51 29.3333,-51 29.3333,-51 23.6667,-51 18,-45.3333 18,-39.6667 18,-39.6667 18,-28.3333 18,-28.3333 18,-22.6667 23.6667,-17 29.3333,-17"/>
</g>
<!-- ST_START_TIMER&#45;&gt;state_to_comeback -->
<g id="edge6" class="edge transition">
<title>ST_START_TIMER&#45;&gt;state_to_comeback</title>
<path fill="none" stroke="#ff0000" d="M80,-97.8015C80,-87.3976 80,-74.1215 80,-62.3768"/>
<polygon fill="#ff0000" stroke="#ff0000" points="83.5001,-62.1476 80,-52.1476 76.5001,-62.1476 83.5001,-62.1476"/>
<text text-anchor="start" x="80" y="-72" font-family="Helvetica,sans-Serif" font-size="10.00" fill="#ff0000">timer = 1 &#160;&#160;</text>
</g>
<!-- ST_PARSE_RDATA -->
<g id="node9" class="node state regular">
<title>ST_PARSE_RDATA</title>
<polygon fill="#ffffff" fill-opacity="0.003922" stroke="transparent" stroke-width="2" points="148,-298 16,-298 16,-262 148,-262 148,-298"/>
<text text-anchor="start" x="26.9944" y="-276.2" font-family="Helvetica,sans-Serif" font-size="12.00" fill="#000000">ST_PARSE_RDATA</text>
<path fill="none" stroke="#000000" stroke-width="2" d="M28.3333,-263C28.3333,-263 135.6667,-263 135.6667,-263 141.3333,-263 147,-268.6667 147,-274.3333 147,-274.3333 147,-285.6667 147,-285.6667 147,-291.3333 141.3333,-297 135.6667,-297 135.6667,-297 28.3333,-297 28.3333,-297 22.6667,-297 17,-291.3333 17,-285.6667 17,-285.6667 17,-274.3333 17,-274.3333 17,-268.6667 22.6667,-263 28.3333,-263"/>
</g>
<!-- ST_READ&#45;&gt;ST_PARSE_RDATA -->
<g id="edge7" class="edge transition">
<title>ST_READ&#45;&gt;ST_PARSE_RDATA</title>
<path fill="none" stroke="#000000" d="M81.2219,-343.8015C81.3488,-333.3976 81.5107,-320.1215 81.6539,-308.3768"/>
<polygon fill="#000000" stroke="#000000" points="85.1564,-308.1896 81.7787,-298.1476 78.1569,-308.1041 85.1564,-308.1896"/>
<text text-anchor="start" x="81" y="-318" font-family="Helvetica,sans-Serif" font-size="10.00" fill="#000000">pi_grant = &#39;1&#39; &#160;&#160;</text>
</g>
<!-- ST_PROVIDE -->
<g id="node10" class="node state regular">
<title>ST_PROVIDE</title>
<polygon fill="#ffffff" fill-opacity="0.003922" stroke="transparent" stroke-width="2" points="129,-216 31,-216 31,-180 129,-180 129,-216"/>
<text text-anchor="start" x="41.996" y="-194.2" font-family="Helvetica,sans-Serif" font-size="12.00" fill="#000000">ST_PROVIDE</text>
<path fill="none" stroke="#000000" stroke-width="2" d="M43.3333,-181C43.3333,-181 116.6667,-181 116.6667,-181 122.3333,-181 128,-186.6667 128,-192.3333 128,-192.3333 128,-203.6667 128,-203.6667 128,-209.3333 122.3333,-215 116.6667,-215 116.6667,-215 43.3333,-215 43.3333,-215 37.6667,-215 32,-209.3333 32,-203.6667 32,-203.6667 32,-192.3333 32,-192.3333 32,-186.6667 37.6667,-181 43.3333,-181"/>
</g>
<!-- ST_PARSE_RDATA&#45;&gt;ST_PROVIDE -->
<g id="edge8" class="edge transition">
<title>ST_PARSE_RDATA&#45;&gt;ST_PROVIDE</title>
<path fill="none" stroke="#000000" d="M81.5561,-261.8015C81.3024,-251.3976 80.9786,-238.1215 80.6921,-226.3768"/>
<polygon fill="#000000" stroke="#000000" points="84.1855,-226.0592 80.4426,-216.1476 77.1876,-226.23 84.1855,-226.0592"/>
<text text-anchor="start" x="81" y="-236" font-family="Helvetica,sans-Serif" font-size="10.00" fill="#000000">pi_i2c_done = &#39;1&#39; &#160;&#160;</text>
</g>
<!-- ST_PROVIDE&#45;&gt;ST_START_TIMER -->
<g id="edge9" class="edge transition">
<title>ST_PROVIDE&#45;&gt;ST_START_TIMER</title>
<path fill="none" stroke="#000000" d="M80,-179.8015C80,-169.3976 80,-156.1215 80,-144.3768"/>
<polygon fill="#000000" stroke="#000000" points="83.5001,-144.1476 80,-134.1476 76.5001,-144.1476 83.5001,-144.1476"/>
<text text-anchor="middle" x="81.3895" y="-154" font-family="Helvetica,sans-Serif" font-size="10.00" fill="#000000"> </text>
</g>
</g>
</svg>
