<?xml version="1.0" encoding="UTF-8" standalone="no"?>
<!DOCTYPE svg PUBLIC "-//W3C//DTD SVG 1.1//EN"
 "http://www.w3.org/Graphics/SVG/1.1/DTD/svg11.dtd">
<!-- Generated by graphviz version 2.40.1 (20161225.0304)
 -->
<!-- Title: state transitions Pages: 1 -->
<svg width="249pt" height="680pt"
 viewBox="0.00 0.00 248.62 680.00" xmlns="http://www.w3.org/2000/svg" xmlns:xlink="http://www.w3.org/1999/xlink">
<g id="graph0" class="graph" transform="scale(1 1) rotate(0) translate(4 676)">
<title>state transitions</title>
<polygon fill="#ffffff" stroke="transparent" points="-4,4 -4,-676 244.621,-676 244.621,4 -4,4"/>
<g id="clust1" class="cluster state regular">
<title>cluster_fsm_state</title>
<path fill="none" stroke="#000000" stroke-width="2" d="M20,-8C20,-8 217,-8 217,-8 223,-8 229,-14 229,-20 229,-20 229,-652 229,-652 229,-658 223,-664 217,-664 217,-664 20,-664 20,-664 14,-664 8,-658 8,-652 8,-652 8,-20 8,-20 8,-14 14,-8 20,-8"/>
<text text-anchor="start" x="92.4942" y="-645.2" font-family="Helvetica,sans-Serif" font-size="12.00" fill="#000000">fsm_state</text>
</g>
<!-- fsm_state -->
<!-- ST_IDLE -->
<g id="node2" class="node state regular">
<title>ST_IDLE</title>
<polygon fill="#ffffff" fill-opacity="0.003922" stroke="transparent" stroke-width="2" points="86,-462 16,-462 16,-426 86,-426 86,-462"/>
<text text-anchor="start" x="26.6622" y="-440.2" font-family="Helvetica,sans-Serif" font-size="12.00" fill="#000000">ST_IDLE</text>
<path fill="none" stroke="#000000" stroke-width="2" d="M28.3333,-427C28.3333,-427 73.6667,-427 73.6667,-427 79.3333,-427 85,-432.6667 85,-438.3333 85,-438.3333 85,-449.6667 85,-449.6667 85,-455.3333 79.3333,-461 73.6667,-461 73.6667,-461 28.3333,-461 28.3333,-461 22.6667,-461 17,-455.3333 17,-449.6667 17,-449.6667 17,-438.3333 17,-438.3333 17,-432.6667 22.6667,-427 28.3333,-427"/>
</g>
<!-- ST_CMD_I -->
<g id="node3" class="node state regular">
<title>ST_CMD_I</title>
<polygon fill="#ffffff" fill-opacity="0.003922" stroke="transparent" stroke-width="2" points="97.5,-380 16.5,-380 16.5,-344 97.5,-344 97.5,-380"/>
<text text-anchor="start" x="27.8348" y="-358.2" font-family="Helvetica,sans-Serif" font-size="12.00" fill="#000000">ST_CMD_I</text>
<path fill="none" stroke="#000000" stroke-width="2" d="M28.8333,-345C28.8333,-345 85.1667,-345 85.1667,-345 90.8333,-345 96.5,-350.6667 96.5,-356.3333 96.5,-356.3333 96.5,-367.6667 96.5,-367.6667 96.5,-373.3333 90.8333,-379 85.1667,-379 85.1667,-379 28.8333,-379 28.8333,-379 23.1667,-379 17.5,-373.3333 17.5,-367.6667 17.5,-367.6667 17.5,-356.3333 17.5,-356.3333 17.5,-350.6667 23.1667,-345 28.8333,-345"/>
</g>
<!-- ST_IDLE&#45;&gt;ST_CMD_I -->
<g id="edge1" class="edge transition">
<title>ST_IDLE&#45;&gt;ST_CMD_I</title>
<path fill="none" stroke="#000000" d="M52.3316,-425.8015C53.0929,-415.3976 54.0643,-402.1215 54.9237,-390.3768"/>
<polygon fill="#000000" stroke="#000000" points="58.4329,-390.3764 55.6721,-380.1476 51.4516,-389.8655 58.4329,-390.3764"/>
<text text-anchor="start" x="54" y="-400" font-family="Helvetica,sans-Serif" font-size="10.00" fill="#000000">pi_trg = &#39;1&#39; &#160;&#160;</text>
</g>
<!-- ST_START_TIMER -->
<g id="node4" class="node state regular">
<title>ST_START_TIMER</title>
<polygon fill="#ffffff" fill-opacity="0.003922" stroke="transparent" stroke-width="2" points="171.5,-298 44.5,-298 44.5,-262 171.5,-262 171.5,-298"/>
<text text-anchor="start" x="55.8344" y="-276.2" font-family="Helvetica,sans-Serif" font-size="12.00" fill="#000000">ST_START_TIMER</text>
<path fill="none" stroke="#000000" stroke-width="2" d="M56.8333,-263C56.8333,-263 159.1667,-263 159.1667,-263 164.8333,-263 170.5,-268.6667 170.5,-274.3333 170.5,-274.3333 170.5,-285.6667 170.5,-285.6667 170.5,-291.3333 164.8333,-297 159.1667,-297 159.1667,-297 56.8333,-297 56.8333,-297 51.1667,-297 45.5,-291.3333 45.5,-285.6667 45.5,-285.6667 45.5,-274.3333 45.5,-274.3333 45.5,-268.6667 51.1667,-263 56.8333,-263"/>
</g>
<!-- ST_CMD_I&#45;&gt;ST_START_TIMER -->
<g id="edge2" class="edge transition">
<title>ST_CMD_I&#45;&gt;ST_START_TIMER</title>
<path fill="none" stroke="#000000" d="M55.7243,-343.5622C55.8852,-334.4408 57.3233,-323.5775 62.167,-315 64.1593,-311.472 66.667,-308.1847 69.4775,-305.1503"/>
<polygon fill="#000000" stroke="#000000" points="72.0608,-307.5262 76.9659,-298.1352 67.2751,-302.4176 72.0608,-307.5262"/>
<text text-anchor="start" x="62" y="-318" font-family="Helvetica,sans-Serif" font-size="10.00" fill="#000000">pi_grant = &#39;1&#39; &#160;&#160;</text>
</g>
<!-- ST_WAIT_TIMER -->
<g id="node5" class="node state regular">
<title>ST_WAIT_TIMER</title>
<polygon fill="#ffffff" fill-opacity="0.003922" stroke="transparent" stroke-width="2" points="166.5,-216 49.5,-216 49.5,-180 166.5,-180 166.5,-216"/>
<text text-anchor="start" x="60.5018" y="-194.2" font-family="Helvetica,sans-Serif" font-size="12.00" fill="#000000">ST_WAIT_TIMER</text>
<path fill="none" stroke="#000000" stroke-width="2" d="M61.8333,-181C61.8333,-181 154.1667,-181 154.1667,-181 159.8333,-181 165.5,-186.6667 165.5,-192.3333 165.5,-192.3333 165.5,-203.6667 165.5,-203.6667 165.5,-209.3333 159.8333,-215 154.1667,-215 154.1667,-215 61.8333,-215 61.8333,-215 56.1667,-215 50.5,-209.3333 50.5,-203.6667 50.5,-203.6667 50.5,-192.3333 50.5,-192.3333 50.5,-186.6667 56.1667,-181 61.8333,-181"/>
</g>
<!-- ST_START_TIMER&#45;&gt;ST_WAIT_TIMER -->
<g id="edge3" class="edge transition">
<title>ST_START_TIMER&#45;&gt;ST_WAIT_TIMER</title>
<path fill="none" stroke="#000000" d="M108,-261.8015C108,-251.3976 108,-238.1215 108,-226.3768"/>
<polygon fill="#000000" stroke="#000000" points="111.5001,-226.1476 108,-216.1476 104.5001,-226.1476 111.5001,-226.1476"/>
<text text-anchor="start" x="108" y="-236" font-family="Helvetica,sans-Serif" font-size="10.00" fill="#000000">pi_i2c_done = &#39;1&#39; &#160;&#160;</text>
</g>
<!-- ST_READ -->
<g id="node6" class="node state regular">
<title>ST_READ</title>
<polygon fill="#ffffff" fill-opacity="0.003922" stroke="transparent" stroke-width="2" points="146.5,-134 69.5,-134 69.5,-98 146.5,-98 146.5,-134"/>
<text text-anchor="start" x="80.8322" y="-112.2" font-family="Helvetica,sans-Serif" font-size="12.00" fill="#000000">ST_READ</text>
<path fill="none" stroke="#000000" stroke-width="2" d="M81.8333,-99C81.8333,-99 134.1667,-99 134.1667,-99 139.8333,-99 145.5,-104.6667 145.5,-110.3333 145.5,-110.3333 145.5,-121.6667 145.5,-121.6667 145.5,-127.3333 139.8333,-133 134.1667,-133 134.1667,-133 81.8333,-133 81.8333,-133 76.1667,-133 70.5,-127.3333 70.5,-121.6667 70.5,-121.6667 70.5,-110.3333 70.5,-110.3333 70.5,-104.6667 76.1667,-99 81.8333,-99"/>
</g>
<!-- ST_WAIT_TIMER&#45;&gt;ST_READ -->
<g id="edge4" class="edge transition">
<title>ST_WAIT_TIMER&#45;&gt;ST_READ</title>
<path fill="none" stroke="#000000" d="M108,-179.8015C108,-169.3976 108,-156.1215 108,-144.3768"/>
<polygon fill="#000000" stroke="#000000" points="111.5001,-144.1476 108,-134.1476 104.5001,-144.1476 111.5001,-144.1476"/>
<text text-anchor="start" x="108" y="-154" font-family="Helvetica,sans-Serif" font-size="10.00" fill="#000000">timer = 0 &#160;&#160;</text>
</g>
<!-- state_to_comeback -->
<g id="node11" class="node state regular">
<title>state_to_comeback</title>
<polygon fill="#ffffff" fill-opacity="0.003922" stroke="transparent" stroke-width="2" points="171,-52 45,-52 45,-16 171,-16 171,-52"/>
<text text-anchor="start" x="55.9818" y="-30.2" font-family="Helvetica,sans-Serif" font-size="12.00" fill="#000000">state_to_comeback</text>
<path fill="none" stroke="#ff0000" stroke-width="2" d="M57.3333,-17C57.3333,-17 158.6667,-17 158.6667,-17 164.3333,-17 170,-22.6667 170,-28.3333 170,-28.3333 170,-39.6667 170,-39.6667 170,-45.3333 164.3333,-51 158.6667,-51 158.6667,-51 57.3333,-51 57.3333,-51 51.6667,-51 46,-45.3333 46,-39.6667 46,-39.6667 46,-28.3333 46,-28.3333 46,-22.6667 51.6667,-17 57.3333,-17"/>
</g>
<!-- ST_READ&#45;&gt;state_to_comeback -->
<g id="edge5" class="edge transition">
<title>ST_READ&#45;&gt;state_to_comeback</title>
<path fill="none" stroke="#ff0000" d="M108,-97.8015C108,-87.3976 108,-74.1215 108,-62.3768"/>
<polygon fill="#ff0000" stroke="#ff0000" points="111.5001,-62.1476 108,-52.1476 104.5001,-62.1476 111.5001,-62.1476"/>
<text text-anchor="start" x="108" y="-72" font-family="Helvetica,sans-Serif" font-size="10.00" fill="#ff0000">pi_grant = &#39;1&#39; &#160;&#160;</text>
</g>
<!-- ST_READ_I -->
<g id="node7" class="node state regular">
<title>ST_READ_I</title>
<polygon fill="#ffffff" fill-opacity="0.003922" stroke="transparent" stroke-width="2" points="195.5,-462 108.5,-462 108.5,-426 195.5,-426 195.5,-462"/>
<text text-anchor="start" x="119.8294" y="-440.2" font-family="Helvetica,sans-Serif" font-size="12.00" fill="#000000">ST_READ_I</text>
<path fill="none" stroke="#000000" stroke-width="2" d="M120.8333,-427C120.8333,-427 183.1667,-427 183.1667,-427 188.8333,-427 194.5,-432.6667 194.5,-438.3333 194.5,-438.3333 194.5,-449.6667 194.5,-449.6667 194.5,-455.3333 188.8333,-461 183.1667,-461 183.1667,-461 120.8333,-461 120.8333,-461 115.1667,-461 109.5,-455.3333 109.5,-449.6667 109.5,-449.6667 109.5,-438.3333 109.5,-438.3333 109.5,-432.6667 115.1667,-427 120.8333,-427"/>
</g>
<!-- ST_CMD_V -->
<g id="node8" class="node state regular">
<title>ST_CMD_V</title>
<polygon fill="#ffffff" fill-opacity="0.003922" stroke="transparent" stroke-width="2" points="204.5,-380 119.5,-380 119.5,-344 204.5,-344 204.5,-380"/>
<text text-anchor="start" x="130.5008" y="-358.2" font-family="Helvetica,sans-Serif" font-size="12.00" fill="#000000">ST_CMD_V</text>
<path fill="none" stroke="#000000" stroke-width="2" d="M131.8333,-345C131.8333,-345 192.1667,-345 192.1667,-345 197.8333,-345 203.5,-350.6667 203.5,-356.3333 203.5,-356.3333 203.5,-367.6667 203.5,-367.6667 203.5,-373.3333 197.8333,-379 192.1667,-379 192.1667,-379 131.8333,-379 131.8333,-379 126.1667,-379 120.5,-373.3333 120.5,-367.6667 120.5,-367.6667 120.5,-356.3333 120.5,-356.3333 120.5,-350.6667 126.1667,-345 131.8333,-345"/>
</g>
<!-- ST_READ_I&#45;&gt;ST_CMD_V -->
<g id="edge6" class="edge transition">
<title>ST_READ_I&#45;&gt;ST_CMD_V</title>
<path fill="none" stroke="#000000" d="M154.2193,-425.8015C155.4881,-415.3976 157.1071,-402.1215 158.5394,-390.3768"/>
<polygon fill="#000000" stroke="#000000" points="162.0505,-390.4978 159.7869,-380.1476 155.102,-389.6503 162.0505,-390.4978"/>
<text text-anchor="start" x="157" y="-400" font-family="Helvetica,sans-Serif" font-size="10.00" fill="#000000">pi_i2c_done = &#39;1&#39; &#160;&#160;</text>
</g>
<!-- ST_CMD_V&#45;&gt;ST_START_TIMER -->
<g id="edge7" class="edge transition">
<title>ST_CMD_V&#45;&gt;ST_START_TIMER</title>
<path fill="none" stroke="#000000" d="M150.0156,-343.8015C142.8147,-332.8668 133.5244,-318.7593 125.5116,-306.5916"/>
<polygon fill="#000000" stroke="#000000" points="128.3739,-304.5743 119.9508,-298.1476 122.5277,-308.4243 128.3739,-304.5743"/>
<text text-anchor="start" x="138" y="-318" font-family="Helvetica,sans-Serif" font-size="10.00" fill="#000000">pi_grant = &#39;1&#39; &#160;&#160;</text>
</g>
<!-- ST_READ_V -->
<g id="node9" class="node state regular">
<title>ST_READ_V</title>
<polygon fill="#ffffff" fill-opacity="0.003922" stroke="transparent" stroke-width="2" points="111,-626 19,-626 19,-590 111,-590 111,-626"/>
<text text-anchor="start" x="29.9954" y="-604.2" font-family="Helvetica,sans-Serif" font-size="12.00" fill="#000000">ST_READ_V</text>
<path fill="none" stroke="#000000" stroke-width="2" d="M31.3333,-591C31.3333,-591 98.6667,-591 98.6667,-591 104.3333,-591 110,-596.6667 110,-602.3333 110,-602.3333 110,-613.6667 110,-613.6667 110,-619.3333 104.3333,-625 98.6667,-625 98.6667,-625 31.3333,-625 31.3333,-625 25.6667,-625 20,-619.3333 20,-613.6667 20,-613.6667 20,-602.3333 20,-602.3333 20,-596.6667 25.6667,-591 31.3333,-591"/>
</g>
<!-- ST_PROVIDE -->
<g id="node10" class="node state regular">
<title>ST_PROVIDE</title>
<polygon fill="#ffffff" fill-opacity="0.003922" stroke="transparent" stroke-width="2" points="114,-544 16,-544 16,-508 114,-508 114,-544"/>
<text text-anchor="start" x="26.996" y="-522.2" font-family="Helvetica,sans-Serif" font-size="12.00" fill="#000000">ST_PROVIDE</text>
<path fill="none" stroke="#000000" stroke-width="2" d="M28.3333,-509C28.3333,-509 101.6667,-509 101.6667,-509 107.3333,-509 113,-514.6667 113,-520.3333 113,-520.3333 113,-531.6667 113,-531.6667 113,-537.3333 107.3333,-543 101.6667,-543 101.6667,-543 28.3333,-543 28.3333,-543 22.6667,-543 17,-537.3333 17,-531.6667 17,-531.6667 17,-520.3333 17,-520.3333 17,-514.6667 22.6667,-509 28.3333,-509"/>
</g>
<!-- ST_READ_V&#45;&gt;ST_PROVIDE -->
<g id="edge8" class="edge transition">
<title>ST_READ_V&#45;&gt;ST_PROVIDE</title>
<path fill="none" stroke="#000000" d="M65,-589.8015C65,-579.3976 65,-566.1215 65,-554.3768"/>
<polygon fill="#000000" stroke="#000000" points="68.5001,-554.1476 65,-544.1476 61.5001,-554.1476 68.5001,-554.1476"/>
<text text-anchor="start" x="65" y="-564" font-family="Helvetica,sans-Serif" font-size="10.00" fill="#000000">pi_i2c_done = &#39;1&#39; &#160;&#160;</text>
</g>
<!-- ST_PROVIDE&#45;&gt;ST_IDLE -->
<g id="edge9" class="edge transition">
<title>ST_PROVIDE&#45;&gt;ST_IDLE</title>
<path fill="none" stroke="#000000" d="M61.8929,-507.8015C60.0985,-497.2915 57.8037,-483.8503 55.7835,-472.0177"/>
<polygon fill="#000000" stroke="#000000" points="59.2315,-471.4159 54.0984,-462.1476 52.3313,-472.594 59.2315,-471.4159"/>
<text text-anchor="middle" x="59.3895" y="-482" font-family="Helvetica,sans-Serif" font-size="10.00" fill="#000000"> </text>
</g>
</g>
</svg>
