<?xml version="1.0" encoding="UTF-8" standalone="no"?>
<!DOCTYPE svg PUBLIC "-//W3C//DTD SVG 1.1//EN"
 "http://www.w3.org/Graphics/SVG/1.1/DTD/svg11.dtd">
<!-- Generated by graphviz version 2.40.1 (20161225.0304)
 -->
<!-- Title: state transitions Pages: 1 -->
<svg width="173pt" height="844pt"
 viewBox="0.00 0.00 173.00 844.00" xmlns="http://www.w3.org/2000/svg" xmlns:xlink="http://www.w3.org/1999/xlink">
<g id="graph0" class="graph" transform="scale(1 1) rotate(0) translate(4 840)">
<title>state transitions</title>
<polygon fill="#ffffff" stroke="transparent" points="-4,4 -4,-840 169,-840 169,4 -4,4"/>
<g id="clust1" class="cluster state regular">
<title>cluster_fsm_state</title>
<path fill="none" stroke="#000000" stroke-width="2" d="M20,-8C20,-8 145,-8 145,-8 151,-8 157,-14 157,-20 157,-20 157,-816 157,-816 157,-822 151,-828 145,-828 145,-828 20,-828 20,-828 14,-828 8,-822 8,-816 8,-816 8,-20 8,-20 8,-14 14,-8 20,-8"/>
<text text-anchor="start" x="56.4942" y="-809.2" font-family="Helvetica,sans-Serif" font-size="12.00" fill="#000000">fsm_state</text>
</g>
<!-- fsm_state -->
<!-- ST_IDLE -->
<g id="node2" class="node state regular">
<title>ST_IDLE</title>
<polygon fill="#ffffff" fill-opacity="0.003922" stroke="transparent" stroke-width="2" points="111,-380 41,-380 41,-344 111,-344 111,-380"/>
<text text-anchor="start" x="51.6622" y="-358.2" font-family="Helvetica,sans-Serif" font-size="12.00" fill="#000000">ST_IDLE</text>
<path fill="none" stroke="#000000" stroke-width="2" d="M53.3333,-345C53.3333,-345 98.6667,-345 98.6667,-345 104.3333,-345 110,-350.6667 110,-356.3333 110,-356.3333 110,-367.6667 110,-367.6667 110,-373.3333 104.3333,-379 98.6667,-379 98.6667,-379 53.3333,-379 53.3333,-379 47.6667,-379 42,-373.3333 42,-367.6667 42,-367.6667 42,-356.3333 42,-356.3333 42,-350.6667 47.6667,-345 53.3333,-345"/>
</g>
<!-- ST_CONF_IO -->
<g id="node3" class="node state regular">
<title>ST_CONF_IO</title>
<polygon fill="#ffffff" fill-opacity="0.003922" stroke="transparent" stroke-width="2" points="126.5,-298 29.5,-298 29.5,-262 126.5,-262 126.5,-298"/>
<text text-anchor="start" x="40.832" y="-276.2" font-family="Helvetica,sans-Serif" font-size="12.00" fill="#000000">ST_CONF_IO</text>
<path fill="none" stroke="#000000" stroke-width="2" d="M41.8333,-263C41.8333,-263 114.1667,-263 114.1667,-263 119.8333,-263 125.5,-268.6667 125.5,-274.3333 125.5,-274.3333 125.5,-285.6667 125.5,-285.6667 125.5,-291.3333 119.8333,-297 114.1667,-297 114.1667,-297 41.8333,-297 41.8333,-297 36.1667,-297 30.5,-291.3333 30.5,-285.6667 30.5,-285.6667 30.5,-274.3333 30.5,-274.3333 30.5,-268.6667 36.1667,-263 41.8333,-263"/>
</g>
<!-- ST_IDLE&#45;&gt;ST_CONF_IO -->
<g id="edge1" class="edge transition">
<title>ST_IDLE&#45;&gt;ST_CONF_IO</title>
<path fill="none" stroke="#000000" d="M76.4439,-343.8015C76.6976,-333.3976 77.0214,-320.1215 77.3079,-308.3768"/>
<polygon fill="#000000" stroke="#000000" points="80.8124,-308.23 77.5574,-298.1476 73.8145,-308.0592 80.8124,-308.23"/>
<text text-anchor="start" x="77" y="-318" font-family="Helvetica,sans-Serif" font-size="10.00" fill="#000000">pi_trg = &#39;1&#39; &#160;&#160;</text>
</g>
<!-- ST_START_TIMER -->
<g id="node4" class="node state regular">
<title>ST_START_TIMER</title>
<polygon fill="#ffffff" fill-opacity="0.003922" stroke="transparent" stroke-width="2" points="143.5,-216 16.5,-216 16.5,-180 143.5,-180 143.5,-216"/>
<text text-anchor="start" x="27.8344" y="-194.2" font-family="Helvetica,sans-Serif" font-size="12.00" fill="#000000">ST_START_TIMER</text>
<path fill="none" stroke="#000000" stroke-width="2" d="M28.8333,-181C28.8333,-181 131.1667,-181 131.1667,-181 136.8333,-181 142.5,-186.6667 142.5,-192.3333 142.5,-192.3333 142.5,-203.6667 142.5,-203.6667 142.5,-209.3333 136.8333,-215 131.1667,-215 131.1667,-215 28.8333,-215 28.8333,-215 23.1667,-215 17.5,-209.3333 17.5,-203.6667 17.5,-203.6667 17.5,-192.3333 17.5,-192.3333 17.5,-186.6667 23.1667,-181 28.8333,-181"/>
</g>
<!-- ST_CONF_IO&#45;&gt;ST_START_TIMER -->
<g id="edge2" class="edge transition">
<title>ST_CONF_IO&#45;&gt;ST_START_TIMER</title>
<path fill="none" stroke="#000000" d="M78.4439,-261.8015C78.6976,-251.3976 79.0214,-238.1215 79.3079,-226.3768"/>
<polygon fill="#000000" stroke="#000000" points="82.8124,-226.23 79.5574,-216.1476 75.8145,-226.0592 82.8124,-226.23"/>
<text text-anchor="start" x="79" y="-236" font-family="Helvetica,sans-Serif" font-size="10.00" fill="#000000">pi_grant = &#39;1&#39; &#160;&#160;</text>
</g>
<!-- ST_WAIT_TIMER -->
<g id="node5" class="node state regular">
<title>ST_WAIT_TIMER</title>
<polygon fill="#ffffff" fill-opacity="0.003922" stroke="transparent" stroke-width="2" points="135.5,-134 18.5,-134 18.5,-98 135.5,-98 135.5,-134"/>
<text text-anchor="start" x="29.5018" y="-112.2" font-family="Helvetica,sans-Serif" font-size="12.00" fill="#000000">ST_WAIT_TIMER</text>
<path fill="none" stroke="#000000" stroke-width="2" d="M30.8333,-99C30.8333,-99 123.1667,-99 123.1667,-99 128.8333,-99 134.5,-104.6667 134.5,-110.3333 134.5,-110.3333 134.5,-121.6667 134.5,-121.6667 134.5,-127.3333 128.8333,-133 123.1667,-133 123.1667,-133 30.8333,-133 30.8333,-133 25.1667,-133 19.5,-127.3333 19.5,-121.6667 19.5,-121.6667 19.5,-110.3333 19.5,-110.3333 19.5,-104.6667 25.1667,-99 30.8333,-99"/>
</g>
<!-- ST_START_TIMER&#45;&gt;ST_WAIT_TIMER -->
<g id="edge3" class="edge transition">
<title>ST_START_TIMER&#45;&gt;ST_WAIT_TIMER</title>
<path fill="none" stroke="#000000" d="M79.3342,-179.8015C78.9536,-169.3976 78.4679,-156.1215 78.0382,-144.3768"/>
<polygon fill="#000000" stroke="#000000" points="81.5273,-144.0129 77.6639,-134.1476 74.532,-144.2689 81.5273,-144.0129"/>
<text text-anchor="start" x="78" y="-154" font-family="Helvetica,sans-Serif" font-size="10.00" fill="#000000">pi_i2c_done = &#39;1&#39; &#160;&#160;</text>
</g>
<!-- state_to_comeback -->
<g id="node11" class="node state regular">
<title>state_to_comeback</title>
<polygon fill="#ffffff" fill-opacity="0.003922" stroke="transparent" stroke-width="2" points="142,-52 16,-52 16,-16 142,-16 142,-52"/>
<text text-anchor="start" x="26.9818" y="-30.2" font-family="Helvetica,sans-Serif" font-size="12.00" fill="#000000">state_to_comeback</text>
<path fill="none" stroke="#ff0000" stroke-width="2" d="M28.3333,-17C28.3333,-17 129.6667,-17 129.6667,-17 135.3333,-17 141,-22.6667 141,-28.3333 141,-28.3333 141,-39.6667 141,-39.6667 141,-45.3333 135.3333,-51 129.6667,-51 129.6667,-51 28.3333,-51 28.3333,-51 22.6667,-51 17,-45.3333 17,-39.6667 17,-39.6667 17,-28.3333 17,-28.3333 17,-22.6667 22.6667,-17 28.3333,-17"/>
</g>
<!-- ST_WAIT_TIMER&#45;&gt;state_to_comeback -->
<g id="edge4" class="edge transition">
<title>ST_WAIT_TIMER&#45;&gt;state_to_comeback</title>
<path fill="none" stroke="#ff0000" d="M77.4439,-97.8015C77.6976,-87.3976 78.0214,-74.1215 78.3079,-62.3768"/>
<polygon fill="#ff0000" stroke="#ff0000" points="81.8124,-62.23 78.5574,-52.1476 74.8145,-62.0592 81.8124,-62.23"/>
<text text-anchor="start" x="78" y="-72" font-family="Helvetica,sans-Serif" font-size="10.00" fill="#ff0000">timer = 0 &#160;&#160;</text>
</g>
<!-- ST_CMD_READ -->
<g id="node6" class="node state regular">
<title>ST_CMD_READ</title>
<polygon fill="#ffffff" fill-opacity="0.003922" stroke="transparent" stroke-width="2" points="126.5,-790 15.5,-790 15.5,-754 126.5,-754 126.5,-790"/>
<text text-anchor="start" x="26.8366" y="-768.2" font-family="Helvetica,sans-Serif" font-size="12.00" fill="#000000">ST_CMD_READ</text>
<path fill="none" stroke="#000000" stroke-width="2" d="M27.8333,-755C27.8333,-755 114.1667,-755 114.1667,-755 119.8333,-755 125.5,-760.6667 125.5,-766.3333 125.5,-766.3333 125.5,-777.6667 125.5,-777.6667 125.5,-783.3333 119.8333,-789 114.1667,-789 114.1667,-789 27.8333,-789 27.8333,-789 22.1667,-789 16.5,-783.3333 16.5,-777.6667 16.5,-777.6667 16.5,-766.3333 16.5,-766.3333 16.5,-760.6667 22.1667,-755 27.8333,-755"/>
</g>
<!-- ST_READ_DONE -->
<g id="node7" class="node state regular">
<title>ST_READ_DONE</title>
<polygon fill="#ffffff" fill-opacity="0.003922" stroke="transparent" stroke-width="2" points="134,-708 16,-708 16,-672 134,-672 134,-708"/>
<text text-anchor="start" x="26.6652" y="-686.2" font-family="Helvetica,sans-Serif" font-size="12.00" fill="#000000">ST_READ_DONE</text>
<path fill="none" stroke="#000000" stroke-width="2" d="M28.3333,-673C28.3333,-673 121.6667,-673 121.6667,-673 127.3333,-673 133,-678.6667 133,-684.3333 133,-684.3333 133,-695.6667 133,-695.6667 133,-701.3333 127.3333,-707 121.6667,-707 121.6667,-707 28.3333,-707 28.3333,-707 22.6667,-707 17,-701.3333 17,-695.6667 17,-695.6667 17,-684.3333 17,-684.3333 17,-678.6667 22.6667,-673 28.3333,-673"/>
</g>
<!-- ST_CMD_READ&#45;&gt;ST_READ_DONE -->
<g id="edge5" class="edge transition">
<title>ST_CMD_READ&#45;&gt;ST_READ_DONE</title>
<path fill="none" stroke="#000000" d="M71.8877,-753.8015C72.3952,-743.3976 73.0429,-730.1215 73.6158,-718.3768"/>
<polygon fill="#000000" stroke="#000000" points="77.1233,-718.3063 74.1148,-708.1476 70.1316,-717.9651 77.1233,-718.3063"/>
<text text-anchor="start" x="73" y="-728" font-family="Helvetica,sans-Serif" font-size="10.00" fill="#000000">pi_grant = &#39;1&#39; &#160;&#160;</text>
</g>
<!-- ST_READ -->
<g id="node8" class="node state regular">
<title>ST_READ</title>
<polygon fill="#ffffff" fill-opacity="0.003922" stroke="transparent" stroke-width="2" points="103.5,-626 26.5,-626 26.5,-590 103.5,-590 103.5,-626"/>
<text text-anchor="start" x="37.8322" y="-604.2" font-family="Helvetica,sans-Serif" font-size="12.00" fill="#000000">ST_READ</text>
<path fill="none" stroke="#000000" stroke-width="2" d="M38.8333,-591C38.8333,-591 91.1667,-591 91.1667,-591 96.8333,-591 102.5,-596.6667 102.5,-602.3333 102.5,-602.3333 102.5,-613.6667 102.5,-613.6667 102.5,-619.3333 96.8333,-625 91.1667,-625 91.1667,-625 38.8333,-625 38.8333,-625 33.1667,-625 27.5,-619.3333 27.5,-613.6667 27.5,-613.6667 27.5,-602.3333 27.5,-602.3333 27.5,-596.6667 33.1667,-591 38.8333,-591"/>
</g>
<!-- ST_READ_DONE&#45;&gt;ST_READ -->
<g id="edge6" class="edge transition">
<title>ST_READ_DONE&#45;&gt;ST_READ</title>
<path fill="none" stroke="#000000" d="M72.7807,-671.8015C71.5119,-661.3976 69.8929,-648.1215 68.4606,-636.3768"/>
<polygon fill="#000000" stroke="#000000" points="71.898,-635.6503 67.2131,-626.1476 64.9495,-636.4978 71.898,-635.6503"/>
<text text-anchor="start" x="70" y="-646" font-family="Helvetica,sans-Serif" font-size="10.00" fill="#000000">pi_i2c_done = &#39;1&#39; &#160;&#160;</text>
</g>
<!-- ST_READ_IO -->
<g id="node9" class="node state regular">
<title>ST_READ_IO</title>
<polygon fill="#ffffff" fill-opacity="0.003922" stroke="transparent" stroke-width="2" points="113,-544 17,-544 17,-508 113,-508 113,-544"/>
<text text-anchor="start" x="27.662" y="-522.2" font-family="Helvetica,sans-Serif" font-size="12.00" fill="#000000">ST_READ_IO</text>
<path fill="none" stroke="#000000" stroke-width="2" d="M29.3333,-509C29.3333,-509 100.6667,-509 100.6667,-509 106.3333,-509 112,-514.6667 112,-520.3333 112,-520.3333 112,-531.6667 112,-531.6667 112,-537.3333 106.3333,-543 100.6667,-543 100.6667,-543 29.3333,-543 29.3333,-543 23.6667,-543 18,-537.3333 18,-531.6667 18,-531.6667 18,-520.3333 18,-520.3333 18,-514.6667 23.6667,-509 29.3333,-509"/>
</g>
<!-- ST_READ&#45;&gt;ST_READ_IO -->
<g id="edge7" class="edge transition">
<title>ST_READ&#45;&gt;ST_READ_IO</title>
<path fill="none" stroke="#000000" d="M65,-589.8015C65,-579.3976 65,-566.1215 65,-554.3768"/>
<polygon fill="#000000" stroke="#000000" points="68.5001,-554.1476 65,-544.1476 61.5001,-554.1476 68.5001,-554.1476"/>
<text text-anchor="start" x="65" y="-564" font-family="Helvetica,sans-Serif" font-size="10.00" fill="#000000">pi_grant = &#39;1&#39; &#160;&#160;</text>
</g>
<!-- ST_PROVIDE -->
<g id="node10" class="node state regular">
<title>ST_PROVIDE</title>
<polygon fill="#ffffff" fill-opacity="0.003922" stroke="transparent" stroke-width="2" points="121,-462 23,-462 23,-426 121,-426 121,-462"/>
<text text-anchor="start" x="33.996" y="-440.2" font-family="Helvetica,sans-Serif" font-size="12.00" fill="#000000">ST_PROVIDE</text>
<path fill="none" stroke="#000000" stroke-width="2" d="M35.3333,-427C35.3333,-427 108.6667,-427 108.6667,-427 114.3333,-427 120,-432.6667 120,-438.3333 120,-438.3333 120,-449.6667 120,-449.6667 120,-455.3333 114.3333,-461 108.6667,-461 108.6667,-461 35.3333,-461 35.3333,-461 29.6667,-461 24,-455.3333 24,-449.6667 24,-449.6667 24,-438.3333 24,-438.3333 24,-432.6667 29.6667,-427 35.3333,-427"/>
</g>
<!-- ST_READ_IO&#45;&gt;ST_PROVIDE -->
<g id="edge8" class="edge transition">
<title>ST_READ_IO&#45;&gt;ST_PROVIDE</title>
<path fill="none" stroke="#000000" d="M66.5535,-507.8015C67.4417,-497.3976 68.575,-484.1215 69.5776,-472.3768"/>
<polygon fill="#000000" stroke="#000000" points="73.0875,-472.4091 70.4508,-462.1476 66.1128,-471.8136 73.0875,-472.4091"/>
<text text-anchor="start" x="68" y="-482" font-family="Helvetica,sans-Serif" font-size="10.00" fill="#000000">pi_i2c_done = &#39;1&#39; &#160;&#160;</text>
</g>
<!-- ST_PROVIDE&#45;&gt;ST_IDLE -->
<g id="edge9" class="edge transition">
<title>ST_PROVIDE&#45;&gt;ST_IDLE</title>
<path fill="none" stroke="#000000" d="M72.8877,-425.8015C73.3952,-415.3976 74.0429,-402.1215 74.6158,-390.3768"/>
<polygon fill="#000000" stroke="#000000" points="78.1233,-390.3063 75.1148,-380.1476 71.1316,-389.9651 78.1233,-390.3063"/>
<text text-anchor="middle" x="75.3895" y="-400" font-family="Helvetica,sans-Serif" font-size="10.00" fill="#000000"> </text>
</g>
</g>
</svg>
