<?xml version="1.0" encoding="UTF-8" standalone="no"?>
<!DOCTYPE svg PUBLIC "-//W3C//DTD SVG 1.1//EN"
 "http://www.w3.org/Graphics/SVG/1.1/DTD/svg11.dtd">
<!-- Generated by graphviz version 2.40.1 (20161225.0304)
 -->
<!-- Title: state transitions Pages: 1 -->
<svg width="461pt" height="364pt"
 viewBox="0.00 0.00 461.00 364.00" xmlns="http://www.w3.org/2000/svg" xmlns:xlink="http://www.w3.org/1999/xlink">
<g id="graph0" class="graph" transform="scale(1 1) rotate(0) translate(4 360)">
<title>state transitions</title>
<polygon fill="#ffffff" stroke="transparent" points="-4,4 -4,-360 457,-360 457,4 -4,4"/>
<g id="clust1" class="cluster state regular">
<title>cluster_fsm_state</title>
<path fill="none" stroke="#000000" stroke-width="2" d="M20,-8C20,-8 433,-8 433,-8 439,-8 445,-14 445,-20 445,-20 445,-336 445,-336 445,-342 439,-348 433,-348 433,-348 20,-348 20,-348 14,-348 8,-342 8,-336 8,-336 8,-20 8,-20 8,-14 14,-8 20,-8"/>
<text text-anchor="start" x="200.4942" y="-329.2" font-family="Helvetica,sans-Serif" font-size="12.00" fill="#000000">fsm_state</text>
</g>
<!-- fsm_state -->
<!-- ST_IDLE -->
<g id="node2" class="node state regular">
<title>ST_IDLE</title>
<polygon fill="#ffffff" fill-opacity="0.003922" stroke="transparent" stroke-width="2" points="325,-310 255,-310 255,-274 325,-274 325,-310"/>
<text text-anchor="start" x="265.6622" y="-288.2" font-family="Helvetica,sans-Serif" font-size="12.00" fill="#000000">ST_IDLE</text>
<path fill="none" stroke="#000000" stroke-width="2" d="M267.3333,-275C267.3333,-275 312.6667,-275 312.6667,-275 318.3333,-275 324,-280.6667 324,-286.3333 324,-286.3333 324,-297.6667 324,-297.6667 324,-303.3333 318.3333,-309 312.6667,-309 312.6667,-309 267.3333,-309 267.3333,-309 261.6667,-309 256,-303.3333 256,-297.6667 256,-297.6667 256,-286.3333 256,-286.3333 256,-280.6667 261.6667,-275 267.3333,-275"/>
</g>
<!-- ST_WAIT_GRANT -->
<g id="node3" class="node state regular">
<title>ST_WAIT_GRANT</title>
<polygon fill="#ffffff" fill-opacity="0.003922" stroke="transparent" stroke-width="2" points="245,-228 123,-228 123,-192 245,-192 245,-228"/>
<text text-anchor="start" x="133.6678" y="-206.2" font-family="Helvetica,sans-Serif" font-size="12.00" fill="#000000">ST_WAIT_GRANT</text>
<path fill="none" stroke="#000000" stroke-width="2" d="M135.3333,-193C135.3333,-193 232.6667,-193 232.6667,-193 238.3333,-193 244,-198.6667 244,-204.3333 244,-204.3333 244,-215.6667 244,-215.6667 244,-221.3333 238.3333,-227 232.6667,-227 232.6667,-227 135.3333,-227 135.3333,-227 129.6667,-227 124,-221.3333 124,-215.6667 124,-215.6667 124,-204.3333 124,-204.3333 124,-198.6667 129.6667,-193 135.3333,-193"/>
</g>
<!-- ST_IDLE&#45;&gt;ST_WAIT_GRANT -->
<g id="edge1" class="edge transition">
<title>ST_IDLE&#45;&gt;ST_WAIT_GRANT</title>
<path fill="none" stroke="#000000" d="M266.4752,-273.8015C251.5166,-262.2298 231.965,-247.105 215.6526,-234.486"/>
<polygon fill="#000000" stroke="#000000" points="217.5102,-231.498 207.4591,-228.1476 213.2271,-237.0347 217.5102,-231.498"/>
<text text-anchor="start" x="244" y="-248" font-family="Helvetica,sans-Serif" font-size="10.00" fill="#000000">pi_start = &#39;1&#39; &#160;&#160;</text>
</g>
<!-- ST_SEND_CONF -->
<g id="node4" class="node state regular">
<title>ST_SEND_CONF</title>
<polygon fill="#ffffff" fill-opacity="0.003922" stroke="transparent" stroke-width="2" points="133.5,-134 16.5,-134 16.5,-98 133.5,-98 133.5,-134"/>
<text text-anchor="start" x="27.5012" y="-112.2" font-family="Helvetica,sans-Serif" font-size="12.00" fill="#000000">ST_SEND_CONF</text>
<path fill="none" stroke="#000000" stroke-width="2" d="M28.8333,-99C28.8333,-99 121.1667,-99 121.1667,-99 126.8333,-99 132.5,-104.6667 132.5,-110.3333 132.5,-110.3333 132.5,-121.6667 132.5,-121.6667 132.5,-127.3333 126.8333,-133 121.1667,-133 121.1667,-133 28.8333,-133 28.8333,-133 23.1667,-133 17.5,-127.3333 17.5,-121.6667 17.5,-121.6667 17.5,-110.3333 17.5,-110.3333 17.5,-104.6667 23.1667,-99 28.8333,-99"/>
</g>
<!-- ST_WAIT_GRANT&#45;&gt;ST_SEND_CONF -->
<g id="edge2" class="edge transition">
<title>ST_WAIT_GRANT&#45;&gt;ST_SEND_CONF</title>
<path fill="none" stroke="#000000" d="M122.8451,-193.5373C106.3789,-187.9597 91.5814,-181.4915 86.043,-175 78.8904,-166.6165 75.7627,-155.0914 74.5552,-144.4508"/>
<polygon fill="#000000" stroke="#000000" points="78.0346,-144.0131 73.9097,-134.2542 71.0485,-144.4554 78.0346,-144.0131"/>
<text text-anchor="start" x="86" y="-166" font-family="Helvetica,sans-Serif" font-size="10.00" fill="#000000">operation_mode = &#39;1&#39; &#160;&#160;</text>
<text text-anchor="start" x="86" y="-154" font-family="Helvetica,sans-Serif" font-size="10.00" fill="#000000">pi_grant = &#39;1&#39; &#160;&#160;</text>
</g>
<!-- ST_READ_CONF -->
<g id="node5" class="node state regular">
<title>ST_READ_CONF</title>
<polygon fill="#ffffff" fill-opacity="0.003922" stroke="transparent" stroke-width="2" points="272.5,-134 155.5,-134 155.5,-98 272.5,-98 272.5,-134"/>
<text text-anchor="start" x="166.5012" y="-112.2" font-family="Helvetica,sans-Serif" font-size="12.00" fill="#000000">ST_READ_CONF</text>
<path fill="none" stroke="#000000" stroke-width="2" d="M167.8333,-99C167.8333,-99 260.1667,-99 260.1667,-99 265.8333,-99 271.5,-104.6667 271.5,-110.3333 271.5,-110.3333 271.5,-121.6667 271.5,-121.6667 271.5,-127.3333 265.8333,-133 260.1667,-133 260.1667,-133 167.8333,-133 167.8333,-133 162.1667,-133 156.5,-127.3333 156.5,-121.6667 156.5,-121.6667 156.5,-110.3333 156.5,-110.3333 156.5,-104.6667 162.1667,-99 167.8333,-99"/>
</g>
<!-- ST_WAIT_GRANT&#45;&gt;ST_READ_CONF -->
<g id="edge3" class="edge transition">
<title>ST_WAIT_GRANT&#45;&gt;ST_READ_CONF</title>
<path fill="none" stroke="#000000" d="M188.7151,-191.8006C191.861,-180.0742 196.229,-164.5438 200.709,-151 201.5127,-148.5702 202.3836,-146.0598 203.2821,-143.5512"/>
<polygon fill="#000000" stroke="#000000" points="206.6069,-144.6514 206.7994,-134.0583 200.043,-142.2193 206.6069,-144.6514"/>
<text text-anchor="start" x="200" y="-166" font-family="Helvetica,sans-Serif" font-size="10.00" fill="#000000">pi_grant = &#39;1&#39; &#160;&#160;</text>
<text text-anchor="start" x="200" y="-154" font-family="Helvetica,sans-Serif" font-size="10.00" fill="#000000">not (operation_mode = &#39;1&#39;) &#160;&#160;</text>
</g>
<!-- ST_WAIT_DONE -->
<g id="node6" class="node state regular">
<title>ST_WAIT_DONE</title>
<polygon fill="#ffffff" fill-opacity="0.003922" stroke="transparent" stroke-width="2" points="271.5,-52 156.5,-52 156.5,-16 271.5,-16 271.5,-52"/>
<text text-anchor="start" x="167.8332" y="-30.2" font-family="Helvetica,sans-Serif" font-size="12.00" fill="#000000">ST_WAIT_DONE</text>
<path fill="none" stroke="#000000" stroke-width="2" d="M168.8333,-17C168.8333,-17 259.1667,-17 259.1667,-17 264.8333,-17 270.5,-22.6667 270.5,-28.3333 270.5,-28.3333 270.5,-39.6667 270.5,-39.6667 270.5,-45.3333 264.8333,-51 259.1667,-51 259.1667,-51 168.8333,-51 168.8333,-51 163.1667,-51 157.5,-45.3333 157.5,-39.6667 157.5,-39.6667 157.5,-28.3333 157.5,-28.3333 157.5,-22.6667 163.1667,-17 168.8333,-17"/>
</g>
<!-- ST_SEND_CONF&#45;&gt;ST_WAIT_DONE -->
<g id="edge4" class="edge transition">
<title>ST_SEND_CONF&#45;&gt;ST_WAIT_DONE</title>
<path fill="none" stroke="#000000" d="M105.8486,-97.8015C126.0939,-85.8583 152.7553,-70.13 174.5403,-57.2784"/>
<polygon fill="#000000" stroke="#000000" points="176.403,-60.2432 183.2376,-52.1476 172.8463,-54.2141 176.403,-60.2432"/>
<text text-anchor="middle" x="154.3895" y="-72" font-family="Helvetica,sans-Serif" font-size="10.00" fill="#000000"> </text>
</g>
<!-- ST_READ_CONF&#45;&gt;ST_WAIT_DONE -->
<g id="edge5" class="edge transition">
<title>ST_READ_CONF&#45;&gt;ST_WAIT_DONE</title>
<path fill="none" stroke="#000000" d="M214,-97.8015C214,-87.3976 214,-74.1215 214,-62.3768"/>
<polygon fill="#000000" stroke="#000000" points="217.5001,-62.1476 214,-52.1476 210.5001,-62.1476 217.5001,-62.1476"/>
<text text-anchor="middle" x="215.3895" y="-72" font-family="Helvetica,sans-Serif" font-size="10.00" fill="#000000"> </text>
</g>
<!-- ST_WAIT_DONE&#45;&gt;ST_IDLE -->
<g id="edge6" class="edge transition">
<title>ST_WAIT_DONE&#45;&gt;ST_IDLE</title>
<path fill="none" stroke="#000000" d="M271.7409,-40.4603C309.931,-46.4005 353,-57.0736 353,-75 353,-251 353,-251 353,-251 353,-263.0302 344.8303,-271.7129 334.3749,-277.8989"/>
<polygon fill="#000000" stroke="#000000" points="332.5416,-274.9033 325.1839,-282.5266 335.6896,-281.1555 332.5416,-274.9033"/>
<text text-anchor="start" x="353" y="-160" font-family="Helvetica,sans-Serif" font-size="10.00" fill="#000000">pi_i2c_done = &#39;1&#39; &#160;&#160;</text>
</g>
</g>
</svg>
