<?xml version="1.0" encoding="UTF-8" standalone="no"?>
<!DOCTYPE svg PUBLIC "-//W3C//DTD SVG 1.1//EN"
 "http://www.w3.org/Graphics/SVG/1.1/DTD/svg11.dtd">
<!-- Generated by graphviz version 2.40.1 (20161225.0304)
 -->
<!-- Title: state transitions Pages: 1 -->
<svg width="400pt" height="516pt"
 viewBox="0.00 0.00 400.00 516.00" xmlns="http://www.w3.org/2000/svg" xmlns:xlink="http://www.w3.org/1999/xlink">
<g id="graph0" class="graph" transform="scale(1 1) rotate(0) translate(4 512)">
<title>state transitions</title>
<polygon fill="#ffffff" stroke="transparent" points="-4,4 -4,-512 396,-512 396,4 -4,4"/>
<g id="clust1" class="cluster state regular">
<title>cluster_fsm_state</title>
<path fill="none" stroke="#000000" stroke-width="2" d="M20,-8C20,-8 372,-8 372,-8 378,-8 384,-14 384,-20 384,-20 384,-488 384,-488 384,-494 378,-500 372,-500 372,-500 20,-500 20,-500 14,-500 8,-494 8,-488 8,-488 8,-20 8,-20 8,-14 14,-8 20,-8"/>
<text text-anchor="start" x="169.9942" y="-481.2" font-family="Helvetica,sans-Serif" font-size="12.00" fill="#000000">fsm_state</text>
</g>
<!-- fsm_state -->
<!-- ST_IDLE -->
<g id="node2" class="node state regular">
<title>ST_IDLE</title>
<polygon fill="#ffffff" fill-opacity="0.003922" stroke="transparent" stroke-width="2" points="101,-380 31,-380 31,-344 101,-344 101,-380"/>
<text text-anchor="start" x="41.6622" y="-358.2" font-family="Helvetica,sans-Serif" font-size="12.00" fill="#000000">ST_IDLE</text>
<path fill="none" stroke="#000000" stroke-width="2" d="M43.3333,-345C43.3333,-345 88.6667,-345 88.6667,-345 94.3333,-345 100,-350.6667 100,-356.3333 100,-356.3333 100,-367.6667 100,-367.6667 100,-373.3333 94.3333,-379 88.6667,-379 88.6667,-379 43.3333,-379 43.3333,-379 37.6667,-379 32,-373.3333 32,-367.6667 32,-367.6667 32,-356.3333 32,-356.3333 32,-350.6667 37.6667,-345 43.3333,-345"/>
</g>
<!-- ST_CONF_P0 -->
<g id="node5" class="node state regular">
<title>ST_CONF_P0</title>
<polygon fill="#ffffff" fill-opacity="0.003922" stroke="transparent" stroke-width="2" points="115.5,-298 16.5,-298 16.5,-262 115.5,-262 115.5,-298"/>
<text text-anchor="start" x="27.83" y="-276.2" font-family="Helvetica,sans-Serif" font-size="12.00" fill="#000000">ST_CONF_P0</text>
<path fill="none" stroke="#000000" stroke-width="2" d="M28.8333,-263C28.8333,-263 103.1667,-263 103.1667,-263 108.8333,-263 114.5,-268.6667 114.5,-274.3333 114.5,-274.3333 114.5,-285.6667 114.5,-285.6667 114.5,-291.3333 108.8333,-297 103.1667,-297 103.1667,-297 28.8333,-297 28.8333,-297 23.1667,-297 17.5,-291.3333 17.5,-285.6667 17.5,-285.6667 17.5,-274.3333 17.5,-274.3333 17.5,-268.6667 23.1667,-263 28.8333,-263"/>
</g>
<!-- ST_IDLE&#45;&gt;ST_CONF_P0 -->
<g id="edge1" class="edge transition">
<title>ST_IDLE&#45;&gt;ST_CONF_P0</title>
<path fill="none" stroke="#000000" d="M66,-343.8015C66,-333.3976 66,-320.1215 66,-308.3768"/>
<polygon fill="#000000" stroke="#000000" points="69.5001,-308.1476 66,-298.1476 62.5001,-308.1476 69.5001,-308.1476"/>
<text text-anchor="start" x="66" y="-318" font-family="Helvetica,sans-Serif" font-size="10.00" fill="#000000">pi_trg = &#39;1&#39; &#160;&#160;</text>
</g>
<!-- ST_START_TIMER -->
<g id="node3" class="node state regular">
<title>ST_START_TIMER</title>
<polygon fill="#ffffff" fill-opacity="0.003922" stroke="transparent" stroke-width="2" points="259.5,-216 132.5,-216 132.5,-180 259.5,-180 259.5,-216"/>
<text text-anchor="start" x="143.8344" y="-194.2" font-family="Helvetica,sans-Serif" font-size="12.00" fill="#000000">ST_START_TIMER</text>
<path fill="none" stroke="#000000" stroke-width="2" d="M144.8333,-181C144.8333,-181 247.1667,-181 247.1667,-181 252.8333,-181 258.5,-186.6667 258.5,-192.3333 258.5,-192.3333 258.5,-203.6667 258.5,-203.6667 258.5,-209.3333 252.8333,-215 247.1667,-215 247.1667,-215 144.8333,-215 144.8333,-215 139.1667,-215 133.5,-209.3333 133.5,-203.6667 133.5,-203.6667 133.5,-192.3333 133.5,-192.3333 133.5,-186.6667 139.1667,-181 144.8333,-181"/>
</g>
<!-- ST_WAIT_TIMER -->
<g id="node4" class="node state regular">
<title>ST_WAIT_TIMER</title>
<polygon fill="#ffffff" fill-opacity="0.003922" stroke="transparent" stroke-width="2" points="254.5,-134 137.5,-134 137.5,-98 254.5,-98 254.5,-134"/>
<text text-anchor="start" x="148.5018" y="-112.2" font-family="Helvetica,sans-Serif" font-size="12.00" fill="#000000">ST_WAIT_TIMER</text>
<path fill="none" stroke="#000000" stroke-width="2" d="M149.8333,-99C149.8333,-99 242.1667,-99 242.1667,-99 247.8333,-99 253.5,-104.6667 253.5,-110.3333 253.5,-110.3333 253.5,-121.6667 253.5,-121.6667 253.5,-127.3333 247.8333,-133 242.1667,-133 242.1667,-133 149.8333,-133 149.8333,-133 144.1667,-133 138.5,-127.3333 138.5,-121.6667 138.5,-121.6667 138.5,-110.3333 138.5,-110.3333 138.5,-104.6667 144.1667,-99 149.8333,-99"/>
</g>
<!-- ST_START_TIMER&#45;&gt;ST_WAIT_TIMER -->
<g id="edge2" class="edge transition">
<title>ST_START_TIMER&#45;&gt;ST_WAIT_TIMER</title>
<path fill="none" stroke="#000000" d="M196,-179.8015C196,-169.3976 196,-156.1215 196,-144.3768"/>
<polygon fill="#000000" stroke="#000000" points="199.5001,-144.1476 196,-134.1476 192.5001,-144.1476 199.5001,-144.1476"/>
<text text-anchor="start" x="196" y="-154" font-family="Helvetica,sans-Serif" font-size="10.00" fill="#000000">pi_i2c_done = &#39;1&#39; &#160;&#160;</text>
</g>
<!-- state_to_comeback -->
<g id="node10" class="node state regular">
<title>state_to_comeback</title>
<polygon fill="#ffffff" fill-opacity="0.003922" stroke="transparent" stroke-width="2" points="259,-52 133,-52 133,-16 259,-16 259,-52"/>
<text text-anchor="start" x="143.9818" y="-30.2" font-family="Helvetica,sans-Serif" font-size="12.00" fill="#000000">state_to_comeback</text>
<path fill="none" stroke="#ff0000" stroke-width="2" d="M145.3333,-17C145.3333,-17 246.6667,-17 246.6667,-17 252.3333,-17 258,-22.6667 258,-28.3333 258,-28.3333 258,-39.6667 258,-39.6667 258,-45.3333 252.3333,-51 246.6667,-51 246.6667,-51 145.3333,-51 145.3333,-51 139.6667,-51 134,-45.3333 134,-39.6667 134,-39.6667 134,-28.3333 134,-28.3333 134,-22.6667 139.6667,-17 145.3333,-17"/>
</g>
<!-- ST_WAIT_TIMER&#45;&gt;state_to_comeback -->
<g id="edge3" class="edge transition">
<title>ST_WAIT_TIMER&#45;&gt;state_to_comeback</title>
<path fill="none" stroke="#ff0000" d="M196,-97.8015C196,-87.3976 196,-74.1215 196,-62.3768"/>
<polygon fill="#ff0000" stroke="#ff0000" points="199.5001,-62.1476 196,-52.1476 192.5001,-62.1476 199.5001,-62.1476"/>
<text text-anchor="start" x="196" y="-72" font-family="Helvetica,sans-Serif" font-size="10.00" fill="#ff0000">timer = 0 &#160;&#160;</text>
</g>
<!-- ST_CONF_P0&#45;&gt;ST_START_TIMER -->
<g id="edge4" class="edge transition">
<title>ST_CONF_P0&#45;&gt;ST_START_TIMER</title>
<path fill="none" stroke="#000000" d="M86.5522,-261.8936C97.5795,-252.6467 111.6507,-241.5707 125.167,-233 131.846,-228.7649 139.1094,-224.6621 146.3553,-220.8468"/>
<polygon fill="#000000" stroke="#000000" points="148.1699,-223.85 155.4786,-216.1797 144.9819,-217.6181 148.1699,-223.85"/>
<text text-anchor="start" x="125" y="-236" font-family="Helvetica,sans-Serif" font-size="10.00" fill="#000000">pi_grant = &#39;1&#39; &#160;&#160;</text>
</g>
<!-- ST_CONF_P1 -->
<g id="node6" class="node state regular">
<title>ST_CONF_P1</title>
<polygon fill="#ffffff" fill-opacity="0.003922" stroke="transparent" stroke-width="2" points="375.5,-298 276.5,-298 276.5,-262 375.5,-262 375.5,-298"/>
<text text-anchor="start" x="287.83" y="-276.2" font-family="Helvetica,sans-Serif" font-size="12.00" fill="#000000">ST_CONF_P1</text>
<path fill="none" stroke="#000000" stroke-width="2" d="M288.8333,-263C288.8333,-263 363.1667,-263 363.1667,-263 368.8333,-263 374.5,-268.6667 374.5,-274.3333 374.5,-274.3333 374.5,-285.6667 374.5,-285.6667 374.5,-291.3333 368.8333,-297 363.1667,-297 363.1667,-297 288.8333,-297 288.8333,-297 283.1667,-297 277.5,-291.3333 277.5,-285.6667 277.5,-285.6667 277.5,-274.3333 277.5,-274.3333 277.5,-268.6667 283.1667,-263 288.8333,-263"/>
</g>
<!-- ST_CONF_P1&#45;&gt;ST_START_TIMER -->
<g id="edge5" class="edge transition">
<title>ST_CONF_P1&#45;&gt;ST_START_TIMER</title>
<path fill="none" stroke="#000000" d="M305.5164,-261.8839C294.5231,-252.6343 280.4911,-241.5588 267,-233 260.3093,-228.7554 253.0309,-224.6474 245.769,-220.8297"/>
<polygon fill="#000000" stroke="#000000" points="247.1227,-217.5911 236.6249,-216.1609 243.9396,-223.8255 247.1227,-217.5911"/>
<text text-anchor="start" x="284" y="-236" font-family="Helvetica,sans-Serif" font-size="10.00" fill="#000000">pi_grant = &#39;1&#39; &#160;&#160;</text>
</g>
<!-- ST_PREPARE -->
<g id="node7" class="node state regular">
<title>ST_PREPARE</title>
<polygon fill="#ffffff" fill-opacity="0.003922" stroke="transparent" stroke-width="2" points="283.5,-380 182.5,-380 182.5,-344 283.5,-344 283.5,-380"/>
<text text-anchor="start" x="193.828" y="-358.2" font-family="Helvetica,sans-Serif" font-size="12.00" fill="#000000">ST_PREPARE</text>
<path fill="none" stroke="#000000" stroke-width="2" d="M194.8333,-345C194.8333,-345 271.1667,-345 271.1667,-345 276.8333,-345 282.5,-350.6667 282.5,-356.3333 282.5,-356.3333 282.5,-367.6667 282.5,-367.6667 282.5,-373.3333 276.8333,-379 271.1667,-379 271.1667,-379 194.8333,-379 194.8333,-379 189.1667,-379 183.5,-373.3333 183.5,-367.6667 183.5,-367.6667 183.5,-356.3333 183.5,-356.3333 183.5,-350.6667 189.1667,-345 194.8333,-345"/>
</g>
<!-- ST_CMD_WRITE -->
<g id="node8" class="node state regular">
<title>ST_CMD_WRITE</title>
<polygon fill="#ffffff" fill-opacity="0.003922" stroke="transparent" stroke-width="2" points="254,-298 138,-298 138,-262 254,-262 254,-298"/>
<text text-anchor="start" x="148.6732" y="-276.2" font-family="Helvetica,sans-Serif" font-size="12.00" fill="#000000">ST_CMD_WRITE</text>
<path fill="none" stroke="#000000" stroke-width="2" d="M150.3333,-263C150.3333,-263 241.6667,-263 241.6667,-263 247.3333,-263 253,-268.6667 253,-274.3333 253,-274.3333 253,-285.6667 253,-285.6667 253,-291.3333 247.3333,-297 241.6667,-297 241.6667,-297 150.3333,-297 150.3333,-297 144.6667,-297 139,-291.3333 139,-285.6667 139,-285.6667 139,-274.3333 139,-274.3333 139,-268.6667 144.6667,-263 150.3333,-263"/>
</g>
<!-- ST_PREPARE&#45;&gt;ST_CMD_WRITE -->
<g id="edge6" class="edge transition">
<title>ST_PREPARE&#45;&gt;ST_CMD_WRITE</title>
<path fill="none" stroke="#000000" d="M202.7596,-343.9316C197.254,-339.16 192.2705,-333.4953 189.144,-327 186.3275,-321.1488 185.8926,-314.4499 186.6405,-307.9786"/>
<polygon fill="#000000" stroke="#000000" points="190.0765,-308.645 188.6173,-298.1511 183.214,-307.2646 190.0765,-308.645"/>
<text text-anchor="start" x="189" y="-318" font-family="Helvetica,sans-Serif" font-size="10.00" fill="#000000">cmd_select = 0 &#160;&#160;</text>
</g>
<!-- ST_PREPARE&#45;&gt;ST_CMD_WRITE -->
<g id="edge7" class="edge transition">
<title>ST_PREPARE&#45;&gt;ST_CMD_WRITE</title>
<path fill="none" stroke="#000000" d="M257.7118,-343.5843C266.085,-335.0462 271.9755,-324.6685 266,-315 263.5635,-311.0576 260.5336,-307.5445 257.1116,-304.4162"/>
<polygon fill="#000000" stroke="#000000" points="259.1151,-301.5405 249.0723,-298.1652 254.8183,-307.0666 259.1151,-301.5405"/>
<text text-anchor="start" x="268" y="-318" font-family="Helvetica,sans-Serif" font-size="10.00" fill="#000000">cmd_select = 1 &#160;&#160;</text>
</g>
<!-- ST_CMD_WRITE&#45;&gt;ST_START_TIMER -->
<g id="edge8" class="edge transition">
<title>ST_CMD_WRITE&#45;&gt;ST_START_TIMER</title>
<path fill="none" stroke="#000000" d="M196,-261.8015C196,-251.3976 196,-238.1215 196,-226.3768"/>
<polygon fill="#000000" stroke="#000000" points="199.5001,-226.1476 196,-216.1476 192.5001,-226.1476 199.5001,-226.1476"/>
<text text-anchor="start" x="196" y="-236" font-family="Helvetica,sans-Serif" font-size="10.00" fill="#000000">pi_grant = &#39;1&#39; &#160;&#160;</text>
</g>
<!-- ST_PROVIDE -->
<g id="node9" class="node state regular">
<title>ST_PROVIDE</title>
<polygon fill="#ffffff" fill-opacity="0.003922" stroke="transparent" stroke-width="2" points="115,-462 17,-462 17,-426 115,-426 115,-462"/>
<text text-anchor="start" x="27.996" y="-440.2" font-family="Helvetica,sans-Serif" font-size="12.00" fill="#000000">ST_PROVIDE</text>
<path fill="none" stroke="#000000" stroke-width="2" d="M29.3333,-427C29.3333,-427 102.6667,-427 102.6667,-427 108.3333,-427 114,-432.6667 114,-438.3333 114,-438.3333 114,-449.6667 114,-449.6667 114,-455.3333 108.3333,-461 102.6667,-461 102.6667,-461 29.3333,-461 29.3333,-461 23.6667,-461 18,-455.3333 18,-449.6667 18,-449.6667 18,-438.3333 18,-438.3333 18,-432.6667 23.6667,-427 29.3333,-427"/>
</g>
<!-- ST_PROVIDE&#45;&gt;ST_IDLE -->
<g id="edge9" class="edge transition">
<title>ST_PROVIDE&#45;&gt;ST_IDLE</title>
<path fill="none" stroke="#000000" d="M66,-425.8015C66,-415.3976 66,-402.1215 66,-390.3768"/>
<polygon fill="#000000" stroke="#000000" points="69.5001,-390.1476 66,-380.1476 62.5001,-390.1476 69.5001,-390.1476"/>
<text text-anchor="middle" x="67.3895" y="-400" font-family="Helvetica,sans-Serif" font-size="10.00" fill="#000000"> </text>
</g>
</g>
</svg>
